<svg width="793" height="399" viewBox="0 0 793 399" fill="none" xmlns="http://www.w3.org/2000/svg">
<path d="M415.499 399H792.995C792.998 398.334 793 397.667 793 397C793 383.133 792.29 369.432 790.904 355.931H627.109C591.375 355.931 555.785 363.792 520.213 372.635C515.131 373.899 510.05 375.182 504.968 376.466C469.2 385.5 433.432 394.534 397.535 396.573C424.358 372.602 456.029 353.666 487.701 334.731C523.696 313.21 559.691 291.689 588.569 262.776L704.379 146.819C696.138 136.664 687.406 126.925 678.219 117.638L675.51 114.926C666.237 105.729 656.512 96.988 646.373 88.7383L530.561 204.695C501.684 233.609 480.19 269.65 458.697 305.691C439.783 337.405 420.87 369.119 396.925 395.978C398.961 360.031 407.985 324.213 417.009 288.395C427.263 247.693 437.517 206.991 437.517 166.1V2.0985C424.034 0.710989 410.35 0 396.5 0C382.65 0 368.966 0.710989 355.483 2.0985V166.1C355.483 206.991 365.737 247.693 375.991 288.395C385.014 324.208 394.037 360.022 396.074 395.964C372.133 369.107 353.221 337.396 334.309 305.685C312.816 269.644 291.322 233.603 262.445 204.689L146.634 88.7327C136.492 96.9842 126.765 105.727 117.49 114.926L114.781 117.638C105.596 126.923 96.866 136.66 88.6265 146.812L204.438 262.769C233.315 291.683 269.31 313.204 305.305 334.725C336.98 353.662 368.654 372.599 395.479 396.574C359.578 394.536 323.805 385.501 288.032 376.466C249.922 366.84 211.811 357.214 173.546 356.049C170.995 355.971 168.443 355.931 165.891 355.931H2.09586C0.710094 369.432 0 383.133 0 397C0 397.667 0.00164307 398.334 0.00492539 399H377.501C383.486 398.302 389.474 397.767 395.465 397.427C394.876 397.954 394.284 398.478 393.689 399H395.207C395.496 398.673 395.785 398.348 396.075 398.022C396.056 398.348 396.037 398.674 396.018 399H396.982C396.963 398.679 396.944 398.357 396.926 398.036C397.212 398.357 397.497 398.678 397.781 399H399.298C398.703 398.478 398.111 397.953 397.521 397.426C403.517 397.766 409.509 398.302 415.499 399Z" fill="#F0F0F0"/>
</svg>
