<svg width="26" height="23" viewBox="0 0 26 23" fill="none" xmlns="http://www.w3.org/2000/svg">
<path d="M12.8449 13.0707C13.6931 13.8093 14.6932 14.3938 15.6932 14.9783C16.8344 15.6452 17.9756 16.3121 18.891 17.2081L22.5628 20.8018C22.2916 21.128 22.0008 21.4438 21.6903 21.7477C21.3799 22.0515 21.0572 22.3362 20.7239 22.6016L17.0521 19.0079C16.1366 18.1119 15.4552 16.9951 14.7738 15.8782C14.1742 14.8955 13.5747 13.9127 12.8156 13.0805C12.8157 13.081 12.8157 13.0815 12.8157 13.082L12.802 13.0484L12.8449 13.0707Z" fill="black"/>
<path d="M12.8483 13.0542C13.9754 12.9874 15.0985 12.6991 16.2216 12.4108C17.5032 12.0819 18.7847 11.7529 20.0722 11.7529L25.236 11.7529C25.2797 12.1854 25.3021 12.6244 25.3021 13.0687C25.3021 13.513 25.2797 13.9519 25.236 14.3845L20.0722 14.3845C18.7847 14.3845 17.5032 14.0555 16.2216 13.7266C15.094 13.4372 13.9664 13.1477 12.8347 13.0824C12.8351 13.0827 12.8355 13.0831 12.8359 13.0834L12.8021 13.0687L12.8483 13.0542Z" fill="black"/>
<path d="M12.8249 13.0062C13.5796 12.1761 14.1768 11.1973 14.774 10.2185C15.4554 9.10162 16.1368 7.98474 17.0523 7.08873L20.7241 3.49506C21.0574 3.76048 21.3801 4.04513 21.6905 4.34899C22.001 4.65286 22.2918 4.96866 22.563 5.2949L18.8912 8.88858C17.9758 9.78459 16.8346 10.4515 15.6935 11.1184C14.6894 11.7052 13.6853 12.292 12.8349 13.0349C12.8355 13.0348 12.836 13.0348 12.8365 13.0348L12.8022 13.0482L12.8249 13.0062Z" fill="black"/>
<path d="M12.7876 13.0233C12.7207 11.916 12.4324 10.8125 12.1441 9.70912C11.8152 8.45005 11.4862 7.19096 11.4862 5.92606L11.4862 0.852878C11.9188 0.809957 12.3577 0.787963 12.802 0.787963C13.2463 0.787963 13.6853 0.809956 14.1178 0.852878L14.1178 5.92606C14.1178 7.19096 13.7889 8.45003 13.4599 9.7091C13.1705 10.8169 12.881 11.9248 12.8157 13.0366C12.816 13.0362 12.8164 13.0358 12.8168 13.0354L12.802 13.0687L12.7876 13.0233Z" fill="black"/>
<path d="M12.7586 13.0262C11.9104 12.2876 10.9103 11.7031 9.91028 11.1186C8.76913 10.4517 7.62798 9.78483 6.71249 8.88882L3.04069 5.29514C3.31188 4.96891 3.60272 4.6531 3.91319 4.34924C4.22366 4.04537 4.54633 3.76073 4.87966 3.4953L8.55146 7.08898C9.46695 7.98499 10.1483 9.10185 10.8297 10.2187C11.4293 11.2014 12.0289 12.1842 12.7879 13.0164C12.7879 13.0159 12.7878 13.0154 12.7878 13.0149L12.8015 13.0485L12.7586 13.0262Z" fill="black"/>
<path d="M12.7559 13.0831C11.6288 13.15 10.5057 13.4383 9.38254 13.7266C8.10099 14.0555 6.81942 14.3845 5.53193 14.3845L0.368156 14.3845C0.324467 13.9519 0.302081 13.5129 0.302081 13.0687C0.302081 12.6244 0.324467 12.1854 0.368155 11.7529L5.53193 11.7529C6.81942 11.7529 8.10097 12.0818 9.38253 12.4108C10.5102 12.7002 11.6378 12.9896 12.7695 13.055C12.7691 13.0546 12.7687 13.0543 12.7683 13.0539L12.8021 13.0687L12.7559 13.0831Z" fill="black"/>
<path d="M12.7792 13.0903C12.0245 13.9205 11.4274 14.8993 10.8302 15.8781C10.1488 16.9949 9.46738 18.1118 8.55189 19.0078L4.88009 22.6015C4.54676 22.3361 4.22409 22.0514 3.91362 21.7476C3.60315 21.4437 3.31232 21.1279 3.04112 20.8017L6.71292 17.208C7.62841 16.312 8.76955 15.6451 9.9107 14.9782C10.9148 14.3914 11.9189 13.8046 12.7692 13.0617C12.7687 13.0617 12.7682 13.0617 12.7676 13.0618L12.802 13.0483L12.7792 13.0903Z" fill="black"/>
</svg>
