<svg width="170" height="170" viewBox="0 0 170 170" fill="none" xmlns="http://www.w3.org/2000/svg">
<circle cx="85" cy="85" r="85" fill="#ECF3EA"/>
<path d="M59.3971 112.616H48.9376C48.1232 112.616 47.4373 111.888 47.4373 110.968V81.2394C47.4373 80.3405 48.1017 79.5914 48.9376 79.5914H59.3971C60.233 79.5914 60.8974 80.3191 60.8974 81.2394V110.968C60.8974 111.888 60.233 112.616 59.3971 112.616ZM49.5806 110.476H58.7541V81.7531H49.5806V110.476Z" fill="#3F892C"/>
<path d="M79.973 110.968C79.973 111.289 79.7801 111.546 79.5657 111.546H69.1063C68.8705 111.546 68.6776 111.289 68.6776 110.968V62.7474C68.6776 62.4264 68.8705 62.1696 69.1063 62.1696H79.5657C79.8015 62.1696 79.973 62.4264 79.973 62.7474V110.968Z" fill="#D9E7D5"/>
<path d="M79.5657 112.616H69.1063C68.2919 112.616 67.606 111.888 67.606 110.968V62.7474C67.606 61.8485 68.2704 61.0994 69.1063 61.0994H79.5657C80.3802 61.0994 81.0446 61.8271 81.0446 62.7474V110.968C81.0446 111.867 80.3802 112.616 79.5657 112.616ZM69.7493 110.476H78.9013V63.2396H69.7493V110.454V110.476Z" fill="#3F892C"/>
<path d="M119.86 112.616H109.401C108.565 112.616 107.9 111.888 107.9 110.968V76.381C107.9 75.4607 108.565 74.733 109.401 74.733H119.86C120.696 74.733 121.339 75.4607 121.339 76.381V110.989C121.339 111.888 120.675 112.637 119.86 112.637V112.616ZM110.044 110.476H119.196V76.8733H110.044V110.476Z" fill="#3F892C"/>
<path d="M99.713 112.616H89.2536C88.4391 112.616 87.7532 111.888 87.7532 110.968V85.734C87.7532 84.8136 88.4177 84.0859 89.2536 84.0859H99.713C100.549 84.0859 101.213 84.8136 101.213 85.734V110.968C101.213 111.867 100.549 112.616 99.713 112.616ZM89.8966 110.476H99.0485V86.2262H89.8966V110.476Z" fill="#3F892C"/>
<path d="M54.1673 70.4739C50.6952 70.4739 47.866 67.6487 47.866 64.1815C47.866 60.7142 50.6952 57.889 54.1673 57.889C57.6395 57.889 60.4687 60.7142 60.4687 64.1815C60.4687 67.6487 57.6395 70.4739 54.1673 70.4739ZM54.1673 60.0293C51.874 60.0293 50.0093 61.8914 50.0093 64.1815C50.0093 66.4716 51.874 68.3336 54.1673 68.3336C56.4607 68.3336 58.3254 66.4716 58.3254 64.1815C58.3254 61.8914 56.4607 60.0293 54.1673 60.0293Z" fill="#3F892C"/>
<path d="M74.3146 49.5848C70.8424 49.5848 68.0132 46.7597 68.0132 43.2924C68.0132 39.8252 70.8424 37 74.3146 37C77.7868 37 80.616 39.8252 80.616 43.2924C80.616 46.7597 77.7868 49.5848 74.3146 49.5848ZM74.3146 39.1403C72.0213 39.1403 70.1566 41.0023 70.1566 43.2924C70.1566 45.5825 72.0213 47.4446 74.3146 47.4446C76.608 47.4446 78.4727 45.5825 78.4727 43.2924C78.4727 41.0023 76.608 39.1403 74.3146 39.1403Z" fill="#3F892C"/>
<path d="M94.4833 71.2017C91.0111 71.2017 88.1819 68.3765 88.1819 64.9092C88.1819 61.442 91.0111 58.6168 94.4833 58.6168C97.9554 58.6168 100.785 61.442 100.785 64.9092C100.785 68.3765 97.9554 71.2017 94.4833 71.2017ZM94.4833 60.7571C92.1899 60.7571 90.3252 62.6191 90.3252 64.9092C90.3252 67.1993 92.1899 69.0614 94.4833 69.0614C96.7766 69.0614 98.6413 67.1993 98.6413 64.9092C98.6413 62.6191 96.7766 60.7571 94.4833 60.7571Z" fill="#3F892C"/>
<path d="M114.631 57.0116C111.158 57.0116 108.329 54.1864 108.329 50.7192C108.329 47.2519 111.158 44.4268 114.631 44.4268C118.103 44.4268 120.932 47.2519 120.932 50.7192C120.932 54.1864 118.103 57.0116 114.631 57.0116ZM114.631 46.567C112.337 46.567 110.472 48.4291 110.472 50.7192C110.472 53.0093 112.337 54.8713 114.631 54.8713C116.924 54.8713 118.789 53.0093 118.789 50.7192C118.789 48.4291 116.924 46.567 114.631 46.567Z" fill="#3F892C"/>
<path d="M56.8036 60.7571C56.525 60.7571 56.2464 60.6501 56.0321 60.4361C55.6248 60.008 55.6248 59.3445 56.0535 58.9165L69.5779 45.8822C70.0065 45.4755 70.6709 45.4755 71.0996 45.9036C71.5068 46.3317 71.5068 46.9951 71.0782 47.4232L57.5538 60.4575C57.3395 60.6501 57.0823 60.7571 56.8036 60.7571Z" fill="#3F892C"/>
<path d="M90.9468 62.1483C90.6467 62.1483 90.3252 62.0199 90.1109 61.7631L78.194 47.3376C77.8082 46.8881 77.8725 46.2032 78.344 45.8394C78.7941 45.4541 79.48 45.5183 79.8444 45.9892L91.7613 60.4147C92.147 60.8641 92.0828 61.549 91.6112 61.9129C91.4183 62.0841 91.1611 62.1483 90.9254 62.1483H90.9468Z" fill="#3F892C"/>
<path d="M98.9628 63.3468C98.6413 63.3468 98.2984 63.1969 98.1055 62.9187C97.7625 62.4478 97.8483 61.763 98.3412 61.4205L109.851 53.0092C110.322 52.6668 111.008 52.7524 111.351 53.2446C111.694 53.7155 111.608 54.4004 111.115 54.7428L99.6058 63.1541C99.4129 63.304 99.1986 63.3682 98.9842 63.3682L98.9628 63.3468Z" fill="#3F892C"/>
<path d="M132.827 120H41.0717C40.4715 120 40 119.529 40 118.93C40 118.331 40.4715 117.86 41.0717 117.86H132.827C133.427 117.86 133.899 118.331 133.899 118.93C133.899 119.529 133.427 120 132.827 120Z" fill="#3F892C"/>
</svg>
