<svg width="582" height="598" viewBox="0 0 582 598" fill="none" xmlns="http://www.w3.org/2000/svg">
<rect width="582" height="598" fill="#146642"/>
<mask id="mask0_107_1373" style="mask-type:alpha" maskUnits="userSpaceOnUse" x="0" y="0" width="582" height="598">
<rect width="582" height="598" fill="#146642"/>
</mask>
<g mask="url(#mask0_107_1373)">
<path opacity="0.2" d="M712.759 342.966C714.241 328.513 715 313.845 715 299C715 284.155 714.241 269.487 712.759 255.034H537.603C499.391 255.034 461.332 263.45 423.293 272.917C417.859 274.269 412.425 275.643 406.991 277.017C368.742 286.688 330.493 296.36 292.107 298.543C320.79 272.881 354.658 252.61 388.526 232.339C427.018 209.3 465.51 186.262 496.39 155.309L620.233 31.1742C611.42 20.3033 602.082 9.87723 592.258 -0.0650406L589.361 -2.96869C579.445 -12.8138 569.046 -22.1715 558.203 -31.0031L434.36 93.1323C403.479 124.085 380.495 162.668 357.51 201.251C337.285 235.202 317.06 269.153 291.455 297.905C293.632 259.424 303.281 221.079 312.931 182.735C323.897 139.162 334.862 95.5895 334.862 51.815V-123.753C320.443 -125.239 305.81 -126 291 -126C276.19 -126 261.557 -125.239 247.138 -123.753V51.815C247.138 95.5893 258.103 139.162 269.069 182.735C278.717 221.074 288.366 259.414 290.544 297.891C264.943 269.14 244.719 235.192 224.496 201.244C201.512 162.662 178.527 124.079 147.647 93.1257L23.8044 -31.0091C12.9589 -22.1756 2.55724 -12.8157 -7.36177 -2.96833L-10.2577 -0.0655594C-20.0798 9.87463 -29.4157 20.2984 -38.2267 31.1669L85.6167 155.302C116.497 186.255 154.989 209.294 193.48 232.332C227.352 252.605 261.223 272.879 289.908 298.544C251.517 296.362 213.263 286.69 175.009 277.017C134.255 266.713 93.5019 256.408 52.5827 255.161C49.8548 255.077 47.1261 255.034 44.3966 255.034H-130.759C-132.241 269.487 -133 284.155 -133 299C-133 313.845 -132.241 328.513 -130.759 342.966H44.3966C88.0679 342.966 131.539 331.974 175.009 320.983C179.819 319.767 184.628 318.551 189.438 317.349C222.88 308.998 256.334 301.366 289.893 299.457C261.21 325.119 227.342 345.39 193.474 365.661C154.982 388.699 116.491 411.738 85.6101 442.691L-38.2326 566.826C-29.4205 577.696 -20.0834 588.122 -10.26 598.063L-7.35967 600.97C2.55647 610.815 12.9549 620.172 23.797 629.003L147.64 504.868C178.521 473.915 201.505 435.332 224.49 396.749C244.715 362.798 264.94 328.847 290.545 300.095C288.368 338.576 278.719 376.92 269.069 415.264C258.104 458.837 247.138 502.411 247.138 546.185V721.753C261.557 723.239 276.19 724 291 724C305.81 724 320.443 723.239 334.862 721.753V546.185C334.862 502.411 323.897 458.838 312.931 415.265C303.283 376.926 293.634 338.586 291.456 300.109C317.057 328.86 337.281 362.808 357.504 396.756C380.488 435.338 403.473 473.921 434.353 504.874L558.196 629.009C569.04 620.176 579.441 610.817 589.36 600.97L592.26 598.063C602.081 588.124 611.416 577.701 620.227 566.833L496.383 442.698C465.503 411.745 427.011 388.706 388.519 365.667C354.648 345.394 320.777 325.122 292.092 299.456C325.656 301.364 359.116 308.996 392.562 317.349C397.353 318.546 402.158 319.761 406.949 320.972L406.991 320.983C447.745 331.287 488.498 341.592 529.417 342.839C532.145 342.923 534.874 342.966 537.603 342.966H712.759Z" fill="#3F892C"/>
</g>
</svg>
