<svg width="80" height="516" viewBox="0 0 80 516" fill="none" xmlns="http://www.w3.org/2000/svg">
<path d="M40.5 53.6081C40.281 48.8102 40.0619 44.0122 40.0111 39.1973L40.0001 39L39.9889 39.1444L39.9897 39.1394C39.94 43.9738 39.7201 48.791 39.5001 53.6082C39.2501 59.0829 39.0001 64.5576 39.0001 70.0577V92.1171C38.9999 92.2113 39 92.3057 39.0001 92.4001C39.0001 92.4473 39.0001 92.4945 39.0001 92.5416V114.601C38.9999 114.695 39 114.79 39.0001 114.884C39.0001 114.931 39.0001 114.978 39.0001 115.026V137.085C38.9999 137.179 39 137.274 39.0001 137.368C39.0001 137.415 39.0001 137.462 39.0001 137.509V159.569C38.9999 159.663 39 159.758 39.0001 159.852C39.0001 159.899 39.0001 159.946 39.0001 159.993V182.053C38.9999 182.147 39 182.241 39.0001 182.336C39.0001 182.383 39.0001 182.43 39.0001 182.477V204.537C38.9999 204.631 39 204.725 39.0001 204.82C39.0001 204.867 39.0001 204.914 39.0001 204.961V227.021C38.9999 227.115 39 227.209 39.0001 227.304C39.0001 227.351 39.0001 227.398 39.0001 227.445V249.505C38.9999 249.599 39 249.693 39.0001 249.788C39.0001 249.835 39.0001 249.882 39.0001 249.929V271.988C38.9999 272.083 39 272.177 39.0001 272.272C39.0001 272.319 39.0001 272.366 39.0001 272.413V294.472C38.9999 294.567 39 294.661 39.0001 294.755C39.0001 294.803 39.0001 294.85 39.0001 294.897V316.956C38.9999 317.051 39 317.145 39.0001 317.239C39.0001 317.287 39.0001 317.334 39.0001 317.381V339.44C38.9999 339.534 39 339.629 39.0001 339.723C39.0001 339.77 39.0001 339.818 39.0001 339.865V361.924C38.9999 362.018 39 362.113 39.0001 362.207C39.0001 362.254 39.0001 362.302 39.0001 362.349V384.408C38.9999 384.502 39 384.597 39.0001 384.691C39.0001 384.738 39.0001 384.785 39.0001 384.833V406.892C38.9999 406.986 39 407.081 39.0001 407.175C39.0001 407.222 39.0001 407.269 39.0001 407.317V429.376C38.9999 429.47 39 429.565 39.0001 429.659C39.0001 429.706 39.0001 429.753 39.0001 429.8V451.86C38.9999 451.954 39 452.049 39.0001 452.143C39.0001 452.19 39.0001 452.237 39.0001 452.284V474.344C38.9999 474.438 39 474.532 39.0001 474.627C39.0001 474.674 39.0001 474.721 39.0001 474.768V496.828C38.9999 496.922 39 497.016 39.0001 497.111C39.0001 497.158 39.0001 497.205 39.0001 497.252V516H40.9996L41 497.252C41 497.111 40.9998 496.969 40.9995 496.828L41 474.768C41 474.627 40.9998 474.485 40.9995 474.344L41 452.284C41 452.143 40.9998 452.002 40.9995 451.86L41 429.8C41 429.659 40.9998 429.518 40.9995 429.376L41 407.317C41 407.175 40.9998 407.034 40.9995 406.892L41 384.833C41 384.691 40.9998 384.55 40.9995 384.408L41 362.349C41 362.207 40.9998 362.066 40.9995 361.924L41 339.865C41 339.723 40.9998 339.582 40.9995 339.441L41 317.381C41 317.239 40.9998 317.098 40.9995 316.957L41 294.897C41 294.755 40.9998 294.614 40.9995 294.473L41 272.413C41 272.272 40.9998 272.13 40.9995 271.989L41 249.929C41 249.788 40.9998 249.646 40.9995 249.505L41 227.445C41 227.304 40.9998 227.162 40.9995 227.021L41 204.961C41 204.82 40.9998 204.678 40.9995 204.537L41 182.477C41 182.336 40.9998 182.194 40.9995 182.053L41 159.993C41 159.852 40.9998 159.711 40.9995 159.569L41 137.509C41 137.368 40.9998 137.227 40.9995 137.085L41 115.026C41 114.884 40.9998 114.743 40.9995 114.601L41 92.5416C41 92.4002 40.9998 92.2587 40.9995 92.1173L41 70.0577C41 64.5576 40.75 59.0828 40.5 53.6081Z" fill="#DBDBDB"/>
<path d="M40.1374 39.366C42.8516 41.7297 46.0519 43.6 49.2521 45.4703C52.9037 47.6043 56.5555 49.7385 59.485 52.6057L71.2348 64.1055C70.3669 65.1494 69.4363 66.16 68.4428 67.1324C67.4493 68.1047 66.4167 69.0156 65.3501 69.865L53.6003 58.3652C50.6707 55.498 48.4903 51.924 46.3098 48.35C44.3912 45.2053 42.4726 42.0606 40.0437 39.3974C40.0438 39.399 40.0439 39.4007 40.044 39.4024L40 39.2948L40.1374 39.366Z" fill="#DBDBDB"/>
<path d="M40.1478 39.4506C43.7545 39.2219 47.3486 38.2359 50.9425 37.25C55.0435 36.125 59.1445 35 63.2645 35L79.7886 35C79.9284 36.4793 80 37.9805 80 39.5C80 41.0195 79.9284 42.5207 79.7886 44L63.2645 44C59.1445 44 55.0436 42.875 50.9426 41.75C47.3342 40.7601 43.7257 39.7702 40.1044 39.5467C40.1057 39.548 40.1069 39.5492 40.1082 39.5504L40 39.5L40.1478 39.4506Z" fill="#DBDBDB"/>
<path d="M40.0727 39.1598C42.4878 36.5034 44.3988 33.3712 46.3097 30.2391C48.4902 26.6651 50.6707 23.0911 53.6002 20.2239L65.35 8.72412C66.4167 9.57349 67.4492 10.4844 68.4427 11.4567C69.4362 12.4291 70.3669 13.4397 71.2347 14.4836L59.485 25.9834C56.5554 28.8506 52.9037 30.9847 49.2521 33.1188C46.039 34.9966 42.8259 36.8744 40.1048 39.2516C40.1065 39.2515 40.1082 39.2514 40.1099 39.2513L40 39.2943L40.0727 39.1598Z" fill="#DBDBDB"/>
<path d="M39.956 38.8559C39.7528 35.3393 38.8764 31.8352 38 28.331C37 24.3326 36 20.3341 36 16.3171L36 0.206152C37.3149 0.0698443 38.6494 -9.41943e-07 40 -1.05751e-06C41.3506 -1.17307e-06 42.6851 0.0698438 44 0.206151L44 16.3171C44 20.3341 43 24.3325 42 28.331C41.1201 31.8492 40.2402 35.3674 40.0415 38.8982C40.0426 38.897 40.0437 38.8957 40.0448 38.8945L40 39L39.956 38.8559Z" fill="#DBDBDB"/>
<path d="M39.8606 39.2239C37.1464 36.8601 33.9462 34.9898 30.746 33.1196C27.0943 30.9855 23.4426 28.8514 20.513 25.9841L8.76326 14.4844C9.6311 13.4404 10.5618 12.4298 11.5553 11.4575C12.5488 10.4851 13.5813 9.57425 14.648 8.72488L26.3977 20.2246C29.3273 23.0919 31.5078 26.6658 33.6883 30.2398C35.6069 33.3845 37.5255 36.5292 39.9543 39.1925C39.9542 39.1908 39.9541 39.1892 39.9541 39.1875L39.998 39.2951L39.8606 39.2239Z" fill="#DBDBDB"/>
<path d="M39.8522 39.5494C36.2455 39.7781 32.6514 40.7641 29.0575 41.75C24.9565 42.875 20.8555 44 16.7355 44L0.211437 44C0.0716344 42.5207 -1.82986e-06 41.0195 -2.03344e-06 39.5C-2.23703e-06 37.9805 0.0716336 36.4793 0.211436 35L16.7355 35C20.8555 35 24.9564 36.125 29.0574 37.25C32.6658 38.2399 36.2743 39.2298 39.8956 39.4533C39.8943 39.452 39.8931 39.4508 39.8918 39.4496L40 39.5L39.8522 39.5494Z" fill="#DBDBDB"/>
<path d="M39.9273 39.4291C37.5122 42.0855 35.6012 45.2177 33.6903 48.3498C31.5098 51.9237 29.3293 55.4978 26.3998 58.365L14.65 69.8648C13.5833 69.0154 12.5508 68.1045 11.5573 67.1322C10.5638 66.1598 9.63312 65.1492 8.76529 64.1053L20.515 52.6055C23.4446 49.7383 27.0963 47.6042 30.7479 45.4701C33.961 43.5923 37.1741 41.7145 39.8952 39.3373C39.8935 39.3374 39.8918 39.3375 39.8901 39.3376L40 39.2946L39.9273 39.4291Z" fill="#DBDBDB"/>
</svg>
