<svg width="95" height="95" viewBox="0 0 95 95" fill="none" xmlns="http://www.w3.org/2000/svg">
<path fill-rule="evenodd" clip-rule="evenodd" d="M80.5086 65.7512L69.5759 76.684L64.5783 71.6864C64.3277 71.4358 63.9966 71.2996 63.6407 71.2996C63.2849 71.2996 62.9537 71.4358 62.7031 71.6864C62.4524 71.9371 62.3163 72.2682 62.3163 72.624C62.3163 72.9799 62.4555 73.311 62.7031 73.5617L68.6383 79.4968C68.8889 79.7475 69.22 79.8836 69.5759 79.8836C69.9318 79.8836 70.2629 79.7475 70.5135 79.4968L82.3839 67.6265C82.6345 67.3758 82.7707 67.0447 82.7707 66.6889C82.7707 66.333 82.6314 66.0019 82.3839 65.7512C81.8671 65.2345 81.0285 65.2345 80.5117 65.7512H80.5086Z" fill="#146642"/>
<path fill-rule="evenodd" clip-rule="evenodd" d="M18.115 40.4323H60.0945C60.8248 40.4323 61.4189 39.8382 61.4189 39.1079C61.4189 38.3776 60.8248 37.7835 60.0945 37.7835H18.115C17.3847 37.7835 16.7906 38.3776 16.7906 39.1079C16.7906 39.8382 17.3847 40.4323 18.115 40.4323Z" fill="#146642"/>
<path fill-rule="evenodd" clip-rule="evenodd" d="M47.5 50.3749H18.115C17.3847 50.3749 16.7906 50.969 16.7906 51.6993C16.7906 52.4296 17.3847 53.0237 18.115 53.0237H47.5C48.2303 53.0237 48.8244 52.4296 48.8244 51.6993C48.8244 50.969 48.2303 50.3749 47.5 50.3749Z" fill="#146642"/>
<path fill-rule="evenodd" clip-rule="evenodd" d="M43.3008 62.9693H18.115C17.3847 62.9693 16.7906 63.5635 16.7906 64.2937C16.7906 65.024 17.3847 65.6182 18.115 65.6182H43.3008C44.0311 65.6182 44.6252 65.024 44.6252 64.2937C44.6252 63.5635 44.0311 62.9693 43.3008 62.9693Z" fill="#146642"/>
<path fill-rule="evenodd" clip-rule="evenodd" d="M43.3008 75.5607H18.115C17.3847 75.5607 16.7906 76.1548 16.7906 76.8851C16.7906 77.6154 17.3847 78.2095 18.115 78.2095H43.3008C44.0311 78.2095 44.6252 77.6154 44.6252 76.8851C44.6252 76.1548 44.0311 75.5607 43.3008 75.5607Z" fill="#146642"/>
<path fill-rule="evenodd" clip-rule="evenodd" d="M78.7726 51.2164L78.2094 51.0586V9.7228C78.2094 7.12655 77.1975 4.68502 75.3625 2.84691C73.5244 1.01189 71.0829 0 68.4897 0H25.7923C23.1961 0 20.7546 1.01189 18.9164 2.84691L2.84691 18.9195C1.01189 20.7577 0 23.1992 0 25.7954V85.2834C0 87.8796 1.01189 90.3212 2.84691 92.1593C4.68502 93.9943 7.12655 95.0062 9.71971 95.0062H72.6858C84.9894 95.0062 95 84.9956 95 72.692C95 62.7557 88.3283 53.9272 78.7726 51.2195V51.2164ZM20.9897 4.5272V13.922C20.9897 15.8127 20.2533 17.5858 18.9164 18.9195C17.5827 20.2533 15.8096 20.9897 13.9189 20.9897H4.5241L20.9897 4.5272ZM9.71971 92.3511C7.82899 92.3511 6.05277 91.6147 4.71906 90.2779C3.38534 88.9441 2.64886 87.171 2.64886 85.2803V25.7954C2.64886 25.2756 2.70765 24.7557 2.82215 24.2482L2.95831 23.6448H13.9189C16.5151 23.6448 18.9567 22.6329 20.7948 20.7979C22.6298 18.9598 23.6417 16.5182 23.6417 13.9251V2.9614L24.2451 2.82524C24.7526 2.71075 25.2756 2.65195 25.7923 2.65195H68.4897C70.3805 2.65195 72.1567 3.38844 73.4904 4.72524C74.8241 6.05896 75.5606 7.83208 75.5606 9.7228V50.5449L74.7158 50.4676C74.0474 50.4057 73.3635 50.3748 72.6858 50.3748C60.3822 50.3748 50.3717 60.3853 50.3717 72.6889C50.3717 79.9392 53.9179 86.7625 59.8593 90.9463L61.8552 92.3511H9.71971ZM72.6858 92.3511C61.8428 92.3511 53.0236 83.5319 53.0236 72.6889C53.0236 61.8459 61.8459 53.0267 72.6858 53.0267C83.5257 53.0267 92.348 61.849 92.348 72.6889C92.348 83.5288 83.5288 92.3511 72.6858 92.3511Z" fill="#146642"/>
</svg>
