<svg width="50" height="94" viewBox="0 0 50 94" fill="none" xmlns="http://www.w3.org/2000/svg">
<path d="M25.0848 24.6041C26.7812 26.0814 28.7813 27.2504 30.7815 28.4193C33.0638 29.7531 35.3461 31.0869 37.1771 32.879L44.5207 40.0664C43.9783 40.7188 43.3966 41.3504 42.7757 41.9582C42.1548 42.5659 41.5094 43.1352 40.8428 43.6661L33.4991 36.4787C31.6681 34.6866 30.3053 32.4529 28.9425 30.2192C27.7434 28.2537 26.5443 26.2883 25.0262 24.6237C25.0263 24.6248 25.0263 24.6258 25.0264 24.6269L24.9989 24.5596L25.0848 24.6041Z" fill="#F0F0F0"/>
<path d="M25.0924 24.6566C27.3466 24.5137 29.5929 23.8975 31.8391 23.2813C34.4022 22.5781 36.9654 21.875 39.5403 21.875L49.8679 21.875C49.9553 22.7996 50.0001 23.7378 50.0001 24.6875C50.0001 25.6372 49.9553 26.5755 49.8679 27.5L39.5404 27.5C36.9654 27.5 34.4023 26.7969 31.8391 26.0938C29.5839 25.4751 27.3286 24.8564 25.0652 24.7167C25.066 24.7175 25.0668 24.7183 25.0676 24.719L25 24.6875L25.0924 24.6566Z" fill="#F0F0F0"/>
<path d="M25.0446 24.4736C26.554 22.8133 27.7484 20.8557 28.9427 18.8981C30.3055 16.6644 31.6684 14.4306 33.4993 12.6386L40.843 5.45122C41.5096 5.98208 42.155 6.55137 42.7759 7.15911C43.3969 7.76684 43.9785 8.39845 44.5209 9.05092L37.1773 16.2383C35.3463 18.0303 33.064 19.3641 30.7817 20.698C28.7736 21.8716 26.7654 23.0452 25.0646 24.5309C25.0657 24.5309 25.0668 24.5308 25.0678 24.5308L24.9991 24.5577L25.0446 24.4736Z" fill="#F0F0F0"/>
<path d="M24.9725 24.2849C24.8455 22.0871 24.2977 19.897 23.75 17.7069C23.125 15.2078 22.5 12.7088 22.5 10.1982L22.5 0.128754C23.3218 0.04356 24.1559 -9.36018e-05 25 -9.3674e-05C25.8442 -9.37462e-05 26.6782 0.0435597 27.5 0.128753L27.5 10.1982C27.5 12.7088 26.875 15.2078 26.25 17.7068C25.7001 19.9057 25.1501 22.1046 25.026 24.3114C25.0267 24.3106 25.0273 24.3098 25.028 24.3091L25 24.375L24.9725 24.2849Z" fill="#F0F0F0"/>
<path d="M24.9132 24.515C23.2169 23.0377 21.2167 21.8688 19.2166 20.6998C16.9343 19.366 14.652 18.0322 12.821 16.2402L5.47734 9.05279C6.01973 8.40031 6.6014 7.7687 7.22235 7.16097C7.84329 6.55324 8.48863 5.98395 9.15529 5.45309L16.4989 12.6405C18.3299 14.4325 19.6927 16.6662 21.0555 18.9C22.2546 20.8654 23.4538 22.8309 24.9718 24.4954C24.9718 24.4944 24.9717 24.4933 24.9717 24.4923L24.9991 24.5595L24.9132 24.515Z" fill="#F0F0F0"/>
<path d="M24.9076 24.7184C22.6534 24.8613 20.4071 25.4775 18.1609 26.0937C15.5978 26.7969 13.0346 27.5 10.4597 27.5L0.132053 27.5C0.0446757 26.5754 -9.75244e-05 25.6372 -9.76516e-05 24.6875C-9.77789e-05 23.7378 0.0446752 22.7995 0.132053 21.875L10.4596 21.875C13.0346 21.875 15.5977 22.5781 18.1609 23.2812C20.4161 23.8999 22.6714 24.5186 24.9348 24.6583C24.934 24.6575 24.9332 24.6567 24.9324 24.656L25 24.6875L24.9076 24.7184Z" fill="#F0F0F0"/>
<path d="M24.9534 24.6436C23.444 26.3038 22.2497 28.2615 21.0553 30.2191C19.6925 32.4528 18.3297 34.6866 16.4987 36.4786L9.15508 43.666C8.48842 43.1351 7.84307 42.5658 7.22213 41.9581C6.60119 41.3504 6.01952 40.7187 5.47712 40.0663L12.8208 32.8789C14.6517 31.0869 16.934 29.753 19.2163 28.4192C21.2245 27.2456 23.2327 26.072 24.9334 24.5862C24.9323 24.5863 24.9313 24.5864 24.9302 24.5864L24.9989 24.5595L24.9534 24.6436Z" fill="#F0F0F0"/>
<path opacity="0.5" d="M25.0069 24.466C25.0387 26.6867 25.1756 28.8996 25.3125 31.1125C25.4688 33.6375 25.625 36.1626 25.625 38.6993L25.6247 48.8737C25.6249 48.9389 25.625 49.0041 25.625 49.0693L25.6247 59.2436C25.6249 59.3089 25.625 59.3741 25.625 59.4393L25.6247 69.6136C25.6249 69.6788 25.625 69.7441 25.625 69.8093L25.6247 79.9836C25.6249 80.0488 25.625 80.114 25.625 80.1793L25.6247 90.3536C25.6249 90.4188 25.625 90.484 25.625 90.5493L25.6249 93.9999H24.3751L24.375 90.484C24.375 90.4405 24.375 90.3969 24.3751 90.3535L24.375 80.114C24.375 80.0705 24.375 80.027 24.3751 79.9835L24.375 69.744C24.375 69.7005 24.375 69.657 24.3751 69.6135L24.375 59.3741C24.375 59.3305 24.375 59.287 24.3751 59.2435L24.375 49.0041C24.375 48.9606 24.375 48.917 24.3751 48.8735V38.6993C24.3751 36.1626 24.5313 33.6376 24.6876 31.1125C24.825 28.8908 24.9625 26.669 24.9936 24.4393L24.993 24.4416L25 24.375L25.0069 24.466Z" fill="#F0F0F0"/>
</svg>
