<svg width="80" height="391" viewBox="0 0 80 391" fill="none" xmlns="http://www.w3.org/2000/svg">
<path opacity="0.5" d="M40.5 49.78C40.281 46.2394 40.0619 42.6987 40.0111 39.1456L40.0001 39L39.9889 39.1066L39.9897 39.1028C39.94 42.6704 39.7201 46.2252 39.5001 49.78C39.2501 53.8201 39.0001 57.8601 39.0001 61.9189V78.1975C38.9999 78.2671 39 78.3367 39.0001 78.4064C39.0001 78.4412 39.0001 78.476 39.0001 78.5108V94.7894C38.9999 94.859 39 94.9286 39.0001 94.9983C39.0001 95.0331 39.0001 95.0679 39.0001 95.1027V111.381C38.9999 111.451 39 111.521 39.0001 111.59C39.0001 111.625 39.0001 111.66 39.0001 111.695V127.973C38.9999 128.043 39 128.112 39.0001 128.182C39.0001 128.217 39.0001 128.252 39.0001 128.287V144.565C38.9999 144.635 39 144.704 39.0001 144.774C39.0001 144.809 39.0001 144.844 39.0001 144.878V161.157C38.9999 161.227 39 161.296 39.0001 161.366C39.0001 161.401 39.0001 161.436 39.0001 161.47V177.749C38.9999 177.819 39 177.888 39.0001 177.958C39.0001 177.993 39.0001 178.027 39.0001 178.062V194.341C38.9999 194.41 39 194.48 39.0001 194.55C39.0001 194.585 39.0001 194.619 39.0001 194.654V210.933C38.9999 211.002 39 211.072 39.0001 211.142C39.0001 211.176 39.0001 211.211 39.0001 211.246V227.525C38.9999 227.594 39 227.664 39.0001 227.734C39.0001 227.768 39.0001 227.803 39.0001 227.838V244.117C38.9999 244.186 39 244.256 39.0001 244.325C39.0001 244.36 39.0001 244.395 39.0001 244.43V260.708C38.9999 260.778 39 260.848 39.0001 260.917C39.0001 260.952 39.0001 260.987 39.0001 261.022V277.3C38.9999 277.37 39 277.44 39.0001 277.509C39.0001 277.544 39.0001 277.579 39.0001 277.614V293.892C38.9999 293.962 39 294.032 39.0001 294.101C39.0001 294.136 39.0001 294.171 39.0001 294.206V310.484C38.9999 310.554 39 310.623 39.0001 310.693C39.0001 310.728 39.0001 310.763 39.0001 310.798V327.076C38.9999 327.146 39 327.215 39.0001 327.285C39.0001 327.32 39.0001 327.355 39.0001 327.389V343.668C38.9999 343.738 39 343.807 39.0001 343.877C39.0001 343.912 39.0001 343.947 39.0001 343.981V360.26C38.9999 360.33 39 360.399 39.0001 360.469C39.0001 360.504 39.0001 360.539 39.0001 360.573V376.852C38.9999 376.921 39 376.991 39.0001 377.061C39.0001 377.096 39.0001 377.13 39.0001 377.165V391H40.9996L41 377.165C41 377.061 40.9998 376.956 40.9995 376.852L41 360.573C41 360.469 40.9998 360.365 40.9995 360.26L41 343.981C41 343.877 40.9998 343.773 40.9995 343.668L41 327.389C41 327.285 40.9998 327.181 40.9995 327.076L41 310.798C41 310.693 40.9998 310.589 40.9995 310.484L41 294.206C41 294.101 40.9998 293.997 40.9995 293.893L41 277.614C41 277.509 40.9998 277.405 40.9995 277.301L41 261.022C41 260.917 40.9998 260.813 40.9995 260.709L41 244.43C41 244.326 40.9998 244.221 40.9995 244.117L41 227.838C41 227.734 40.9998 227.629 40.9995 227.525L41 211.246C41 211.142 40.9998 211.037 40.9995 210.933L41 194.654C41 194.55 40.9998 194.445 40.9995 194.341L41 178.062C41 177.958 40.9998 177.854 40.9995 177.749L41 161.47C41 161.366 40.9998 161.262 40.9995 161.157L41 144.878C41 144.774 40.9998 144.67 40.9995 144.565L41 128.287C41 128.182 40.9998 128.078 40.9995 127.973L41 111.695C41 111.59 40.9998 111.486 40.9995 111.382L41 95.1027C41 94.9983 40.9998 94.894 40.9995 94.7896L41 78.5108C41 78.4064 40.9998 78.302 40.9995 78.1977L41 61.9189C41 57.8601 40.75 53.82 40.5 49.78Z" fill="#F0F0F0"/>
<path d="M40.1365 39.366C42.8506 41.7297 46.0509 43.6 49.2511 45.4703C52.9028 47.6043 56.5545 49.7385 59.484 52.6057L71.2338 64.1055C70.366 65.1494 69.4353 66.16 68.4418 67.1324C67.4483 68.1047 66.4158 69.0156 65.3491 69.865L53.5993 58.3652C50.6698 55.498 48.4893 51.924 46.3088 48.35C44.3902 45.2053 42.4716 42.0606 40.0427 39.3974C40.0428 39.399 40.0429 39.4007 40.043 39.4024L39.9991 39.2948L40.1365 39.366Z" fill="#F0F0F0"/>
<path d="M40.1478 39.4506C43.7545 39.2219 47.3486 38.2359 50.9425 37.25C55.0435 36.125 59.1445 35 63.2645 35L79.7886 35C79.9284 36.4793 80 37.9805 80 39.5C80 41.0195 79.9284 42.5207 79.7886 44L63.2645 44C59.1445 44 55.0436 42.875 50.9426 41.75C47.3342 40.7601 43.7257 39.7702 40.1044 39.5467C40.1057 39.548 40.1069 39.5492 40.1082 39.5504L40 39.5L40.1478 39.4506Z" fill="#F0F0F0"/>
<path d="M40.0737 39.1593C42.4888 36.5029 44.3998 33.3707 46.3107 30.2386C48.4911 26.6646 50.6717 23.0906 53.6012 20.2234L65.351 8.72363C66.4176 9.573 67.4502 10.4839 68.4437 11.4562C69.4372 12.4286 70.3679 13.4392 71.2357 14.4831L59.4859 25.9829C56.5564 28.8501 52.9047 30.9842 49.253 33.1183C46.04 34.9961 42.8269 36.8739 40.1057 39.2511C40.1074 39.251 40.1092 39.2509 40.1109 39.2508L40.0009 39.2938L40.0737 39.1593Z" fill="#F0F0F0"/>
<path d="M39.956 38.8559C39.7528 35.3393 38.8764 31.8352 38 28.331C37 24.3326 36 20.3341 36 16.3171L36 0.20615C37.3149 0.0698432 38.6494 -2.26688e-07 40 -3.42251e-07C41.3506 -4.57814e-07 42.6851 0.0698427 44 0.206149L44 16.3171C44 20.3341 43 24.3325 42 28.331C41.1201 31.8492 40.2402 35.3674 40.0415 38.8982C40.0426 38.897 40.0437 38.8957 40.0448 38.8945L40 39L39.956 38.8559Z" fill="#F0F0F0"/>
<path d="M39.8596 39.2239C37.1455 36.8601 33.9452 34.9898 30.745 33.1196C27.0933 30.9855 23.4416 28.8514 20.5121 25.9841L8.76229 14.4844C9.63012 13.4404 10.5608 12.4298 11.5543 11.4575C12.5478 10.4851 13.5803 9.57425 14.647 8.72488L26.3968 20.2246C29.3263 23.0919 31.5068 26.6658 33.6873 30.2398C35.6059 33.3845 37.5245 36.5292 39.9534 39.1925C39.9533 39.1908 39.9532 39.1892 39.9531 39.1875L39.997 39.2951L39.8596 39.2239Z" fill="#F0F0F0"/>
<path d="M39.8522 39.5494C36.2455 39.7781 32.6514 40.7641 29.0575 41.75C24.9565 42.875 20.8555 44 16.7355 44L0.211437 44C0.071636 42.5207 -3.99348e-07 41.0195 -6.02932e-07 39.5C-8.06517e-07 37.9805 0.0716352 36.4793 0.211436 35L16.7355 35C20.8555 35 24.9564 36.125 29.0574 37.25C32.6658 38.2399 36.2743 39.2298 39.8956 39.4533C39.8943 39.452 39.8931 39.4508 39.8918 39.4496L40 39.5L39.8522 39.5494Z" fill="#F0F0F0"/>
<path d="M39.9263 39.4286C37.5112 42.085 35.6003 45.2172 33.6893 48.3493C31.5089 51.9232 29.3283 55.4973 26.3988 58.3645L14.649 69.8643C13.5824 69.0149 12.5498 68.104 11.5563 67.1317C10.5628 66.1593 9.63214 65.1487 8.76431 64.1048L20.5141 52.605C23.4436 49.7378 27.0953 47.6037 30.747 45.4696C33.96 43.5918 37.1731 41.714 39.8943 39.3368C39.8926 39.3369 39.8908 39.337 39.8891 39.3371L39.9991 39.2941L39.9263 39.4286Z" fill="#F0F0F0"/>
</svg>
