<svg width="199" height="36" viewBox="0 0 199 36" fill="none" xmlns="http://www.w3.org/2000/svg">
<path d="M77.9154 0C67.045 0 59.64 7.35763 59.64 17.5634C59.64 27.7691 67.045 35.1269 77.9154 35.1269C81.5229 35.1269 84.2761 34.225 86.4122 33.228C87.599 32.6583 88.6433 32.0414 89.5452 31.3293L86.6971 26.8197C85.985 27.2944 85.2256 27.7218 84.3237 28.1014C82.8046 28.8135 80.8111 29.4306 78.3901 29.4306C71.3173 29.4306 66.523 24.6363 66.523 17.5634C66.523 10.4906 71.3173 5.69624 78.3901 5.69624C80.6211 5.69624 82.4724 6.17091 83.9439 6.74053C84.7509 7.07282 85.5103 7.4051 86.2224 7.83233L89.0705 3.3228C88.2162 2.70571 87.2192 2.13609 86.0799 1.6614C84.1337 0.854436 81.3807 0 77.9154 0ZM95.2452 34.1774H111.812C120.403 34.1774 124.913 29.668 124.913 24.6836C124.723 21.3134 123.394 19.5571 121.021 18.1805C119.834 17.5159 118.552 17.0412 117.081 16.709V16.4716C118.078 16.1868 119.027 15.7596 119.834 15.19C121.163 14.1931 122.54 12.6267 122.54 9.96842C122.54 4.74686 118.742 0.949371 109.96 0.949371H95.2452V34.1774ZM111.859 19.9368C116.179 19.9368 118.03 21.7881 118.03 24.4463C118.03 26.8672 116.179 28.7186 111.859 28.7186H101.891V19.9368H111.859ZM101.891 14.4779V6.40827H109.96C113.758 6.40827 115.657 8.30701 115.657 10.4431C115.657 12.5792 113.758 14.4779 109.96 14.4779H101.891ZM130.847 0.949371V34.1774H143.663C154.344 34.1774 161.464 27.2471 161.464 17.5634C161.464 8.06967 154.344 0.949371 143.663 0.949371H130.847ZM143.663 6.40827C150.071 6.40827 154.581 10.9178 154.581 17.5634C154.581 24.2089 150.071 28.7186 143.663 28.7186H137.492V6.40827H143.663Z" fill="#3F892C"/>
<path d="M54.227 31.5612H0V34.4152H54.227V31.5612Z" fill="#3F892C"/>
<path d="M198.357 31.5612H169.816V34.4152H198.357V31.5612Z" fill="#3F892C"/>
<path d="M4.42823 5.52272L3.17245 9.91796H0.346924V12.2726H3.17245V20.2782C3.17245 23.7316 5.68401 26.2431 9.13742 26.2431C10.1734 26.2431 10.9897 26.0234 11.7118 25.7722C12.0885 25.6153 12.4339 25.4583 12.7478 25.3013L11.9629 23.2607C11.7118 23.3862 11.4292 23.4804 11.1467 23.5746C10.613 23.7316 9.92228 23.8886 9.13742 23.8886C7.25374 23.8886 5.84099 22.5072 5.84099 20.2782V12.2726H11.335V9.91796H5.84099V5.52272H4.42823ZM16.1877 25.6153H18.8562V12.2726C19.2644 12.147 19.7039 12.0528 20.1748 11.9586C20.9597 11.8016 22.0899 11.6447 23.2515 11.6447C26.6736 11.6447 28.7456 13.6853 28.7456 16.3539V25.6153H31.4142V16.3539C31.4142 12.2726 28.4317 9.29007 23.2515 9.29007C22.0899 9.29007 21.0225 9.44704 20.1748 9.60401C19.7039 9.6982 19.2644 9.79238 18.8562 9.91796V3.63904H16.1877V25.6153ZM51.3583 17.7666C51.3583 12.9004 47.7479 9.29007 43.3527 9.29007C38.9574 9.29007 35.3471 12.9004 35.3471 17.7666C35.3471 22.4758 39.1458 26.2431 44.2945 26.2431C46.0526 26.2431 47.3712 25.8036 48.4072 25.3013C49.0037 25.0188 49.506 24.7048 49.9455 24.3595L48.8467 22.4758C48.5014 22.7583 48.0933 22.9781 47.6223 23.1665C46.8375 23.5432 45.7073 23.8886 44.2945 23.8886C40.8411 23.8886 38.6749 21.6595 38.1726 19.0224H50.1025L51.3583 17.7666ZM38.1726 16.6678C38.5179 13.8423 40.6527 11.6447 43.3527 11.6447C46.0526 11.6447 48.1874 13.8423 48.5328 16.6678H38.1726Z" fill="black"/>
<path d="M175.448 11.6447C176.609 11.6447 177.677 11.8958 178.525 12.1784C178.995 12.3353 179.435 12.5237 179.843 12.7435L180.628 10.5458C180.188 10.3261 179.686 10.1063 179.152 9.91795C178.242 9.57261 176.955 9.29006 175.448 9.29006C173.784 9.29006 172.434 9.57261 171.304 9.91795C170.707 10.1063 170.142 10.3261 169.64 10.5458V25.6152H172.308V12.2725C172.591 12.147 172.873 12.0528 173.219 11.9586C173.815 11.8016 174.569 11.6447 175.448 11.6447ZM199 9.91795H196.331V23.2607C195.923 23.3862 195.484 23.4804 195.013 23.5746C194.228 23.7316 193.098 23.8885 191.936 23.8885C188.514 23.8885 186.442 21.8479 186.442 19.1794V9.91795H183.774V19.1794C183.774 23.2607 186.756 26.2431 191.936 26.2431C193.914 26.2431 195.578 25.9606 196.928 25.6152C197.681 25.4269 198.372 25.2071 199 24.9874V9.91795Z" fill="black"/>
</svg>
