<svg width="30" height="30" viewBox="0 0 30 30" fill="none" xmlns="http://www.w3.org/2000/svg">
<path d="M12.375 0.5C18.9335 0.5 24.2507 5.8166 24.251 12.375C24.251 15.4292 23.0967 18.2132 21.2021 20.3174L29.0674 28.1836C29.3115 28.4277 29.3115 28.8233 29.0674 29.0674C28.8233 29.3115 28.4277 29.3115 28.1836 29.0674L20.3174 21.2021C18.2132 23.0967 15.4292 24.251 12.375 24.251C5.8166 24.2507 0.5 18.9335 0.5 12.375C0.500242 5.81675 5.81675 0.500242 12.375 0.5ZM12.375 1.75C6.50711 1.75024 1.75024 6.50711 1.75 12.375C1.75 18.2431 6.50696 23.0007 12.375 23.001C18.2432 23.001 23.001 18.2432 23.001 12.375C23.0007 6.50696 18.2431 1.75 12.375 1.75Z" fill="white"/>
</svg>
