<svg width="53" height="18" viewBox="0 0 53 18" fill="none" xmlns="http://www.w3.org/2000/svg">
<path d="M23.014 16.7499H18.806L21.438 0.507916H25.645L23.014 16.7499ZM37.613 1.21292C36.3901 0.741204 35.0898 0.502103 33.779 0.507916C29.558 0.507916 26.585 2.76192 26.567 5.98292C26.532 8.35992 28.695 9.68092 30.313 10.4729C31.967 11.2829 32.529 11.8119 32.529 12.5329C32.512 13.6429 31.193 14.1529 29.962 14.1529C28.255 14.1529 27.341 13.8899 25.952 13.2729L25.388 13.0089L24.79 16.7239C25.793 17.1809 27.64 17.5869 29.558 17.6039C34.043 17.6039 36.963 15.3859 36.998 11.9529C37.015 10.0689 35.872 8.62492 33.409 7.44492C31.914 6.68792 31 6.17792 31 5.40292C31.017 4.69792 31.774 3.97692 33.462 3.97692C34.852 3.94192 35.872 4.27592 36.646 4.61092L37.033 4.78592L37.613 1.21292V1.21292ZM44.247 10.9959C44.601 10.0629 45.959 6.45192 45.959 6.45192C45.942 6.48592 46.312 5.50192 46.524 4.89692L46.824 6.29692C46.824 6.29692 47.635 10.1839 47.812 10.9969H44.247V10.9959ZM49.541 0.507916H46.224C45.201 0.507916 44.424 0.800916 43.982 1.85592L37.612 16.7499H42.112L43.012 14.3139H48.518C48.641 14.8839 49.03 16.7499 49.03 16.7499H53L49.54 0.507916H49.541ZM4.48 2.57492C3.161 1.84492 1.665 1.25792 0 0.842916L0.073 0.507916H7.18C8.143 0.542916 8.925 0.842916 9.18 1.90292L10.724 9.53092C10.036 7.70892 8.896 6.02692 7.333 4.60592C8.791 6.00392 9.936 7.71992 10.425 9.34592L10.886 11.5959L15.106 0.507916H19.661L12.89 16.7499H8.333L4.48 2.57492Z" fill="#4A4A4A"/>
</svg>
