<svg width="55" height="16" viewBox="0 0 55 16" fill="none" xmlns="http://www.w3.org/2000/svg">
<path fill-rule="evenodd" clip-rule="evenodd" d="M14.588 0.507813V0.514813C14.581 0.514813 12.473 0.507813 11.911 2.53081C11.396 4.38581 9.944 9.50681 9.904 9.64781H9.502C9.502 9.64781 8.017 4.41281 7.495 2.52381C6.933 0.500813 4.818 0.507813 4.818 0.507813H0V15.8978H4.818V6.75781H5.22L8.03 15.8978H11.376L14.186 6.76481H14.588V15.8988H19.406V0.507813H14.588ZM32.214 0.507813C32.214 0.507813 30.79 0.635813 30.122 2.12081L26.679 9.64781H26.274V0.507813H21.414V15.8978H26.004C26.004 15.8978 27.496 15.7648 28.164 14.2858L31.539 6.75781H31.944V15.8978H36.804V0.507813H32.214ZM38.812 7.19981V15.8988H43.544V10.8188H48.67C50.905 10.8188 52.798 9.30881 53.5 7.19881H38.813L38.812 7.19981ZM48.962 0.507813H38.203C38.741 3.30081 40.938 5.54381 43.781 6.27381C44.4415 6.44443 45.1209 6.53078 45.803 6.53081H54.095C54.169 6.19681 54.203 5.85781 54.203 5.50481C54.203 2.74381 51.858 0.507813 48.962 0.507813Z" fill="#4A4A4A"/>
</svg>
