<svg width="40" height="18" viewBox="0 0 40 18" fill="none" xmlns="http://www.w3.org/2000/svg">
<path d="M0.113636 18V0.545454H6.01136C7.38068 0.545454 8.5 0.792613 9.36932 1.28693C10.2443 1.77557 10.892 2.4375 11.3125 3.27273C11.733 4.10795 11.9432 5.03977 11.9432 6.06818C11.9432 7.09659 11.733 8.03125 11.3125 8.87216C10.8977 9.71307 10.2557 10.3835 9.38636 10.8835C8.51705 11.3778 7.40341 11.625 6.04545 11.625H1.81818V9.75H5.97727C6.91477 9.75 7.66761 9.58807 8.2358 9.2642C8.80398 8.94034 9.21591 8.50284 9.47159 7.9517C9.73295 7.39489 9.86364 6.76705 9.86364 6.06818C9.86364 5.36932 9.73295 4.74432 9.47159 4.19318C9.21591 3.64205 8.80114 3.21023 8.22727 2.89773C7.65341 2.57955 6.89205 2.42045 5.94318 2.42045H2.22727V18H0.113636ZM19.0544 18H13.668V0.545454H19.293C20.9862 0.545454 22.4351 0.894886 23.6396 1.59375C24.8441 2.28693 25.7674 3.28409 26.4095 4.58523C27.0515 5.88068 27.3726 7.43182 27.3726 9.23864C27.3726 11.0568 27.0487 12.6222 26.401 13.9347C25.7532 15.2415 24.8101 16.2472 23.5714 16.9517C22.3328 17.6506 20.8271 18 19.0544 18ZM15.7816 16.125H18.918C20.3612 16.125 21.5572 15.8466 22.5061 15.2898C23.4549 14.733 24.1623 13.9403 24.6282 12.9119C25.0941 11.8835 25.3271 10.6591 25.3271 9.23864C25.3271 7.82955 25.097 6.61648 24.6368 5.59943C24.1765 4.5767 23.489 3.79261 22.5743 3.24716C21.6595 2.69602 20.5203 2.42045 19.1566 2.42045H15.7816V16.125ZM29.238 18V0.545454H39.7039V2.42045H31.3516V8.31818H38.9198V10.1932H31.3516V18H29.238Z" fill="#B9B9B9"/>
</svg>
