<svg width="24" height="24" viewBox="0 0 24 24" fill="none" xmlns="http://www.w3.org/2000/svg">
<path d="M14.2854 6.40907C13.9886 6.13645 13.5974 5.98978 13.1945 6C12.7918 5.99091 12.4011 6.13745 12.1036 6.40907C11.5583 6.87924 11.4975 7.7024 11.9676 8.2477C12.0096 8.29631 12.055 8.34174 12.1036 8.38363C12.7248 8.93924 13.6643 8.93924 14.2854 8.38363C14.8306 7.90884 14.8878 7.08197 14.413 6.53672C14.3735 6.49129 14.3309 6.44864 14.2854 6.40907Z" fill="#B9B9B9"/>
<path d="M13.6036 16.9091C13.3583 16.932 13.112 16.8766 12.9 16.7509C12.7451 16.5919 12.6709 16.3711 12.6982 16.1509C12.7039 15.9675 12.7258 15.785 12.7636 15.6054C12.8002 15.3995 12.8475 15.1956 12.9054 14.9945L13.5491 12.78C13.6155 12.5614 13.6593 12.3366 13.68 12.109C13.68 12.0127 13.685 11.9281 13.6912 11.855C13.6949 11.8112 13.6989 11.7716 13.7025 11.7359C13.7082 11.6793 13.7127 11.6329 13.7127 11.5963C13.7264 11.1588 13.5396 10.739 13.2054 10.4563C12.7944 10.1407 12.2825 9.98564 11.7654 10.0199C11.3949 10.0255 11.0272 10.0862 10.6745 10.2C10.2891 10.32 9.8836 10.4636 9.45816 10.6309L9.27273 11.3509C9.39817 11.3072 9.55091 11.2582 9.72543 11.2036C9.89192 11.1543 10.0645 11.1286 10.2382 11.1272C10.4817 11.1008 10.7269 11.1607 10.9309 11.2963C11.0694 11.4616 11.1344 11.6764 11.1109 11.8909C11.1103 12.0743 11.0902 12.2572 11.0509 12.4363C11.0127 12.6272 10.9636 12.829 10.9036 13.0417L10.2545 15.2672C10.2022 15.474 10.1604 15.6834 10.1291 15.8945C10.1036 16.0752 10.0908 16.2574 10.0909 16.4399C10.0882 16.8804 10.2896 17.2973 10.6363 17.569C11.0537 17.8895 11.5729 18.0483 12.0981 18.0163C12.468 18.0239 12.8365 17.9704 13.189 17.8581C13.4981 17.7526 13.9109 17.6017 14.4272 17.4053L14.6018 16.7181C14.4619 16.7761 14.3179 16.8235 14.1709 16.8599C13.985 16.9023 13.7941 16.9188 13.6036 16.9091Z" fill="#B9B9B9"/>
<path fill-rule="evenodd" clip-rule="evenodd" d="M0 12C0 5.37258 5.37258 0 12 0C18.6274 0 24 5.37258 24 12C24 18.6274 18.6274 24 12 24C5.37258 24 0 18.6274 0 12ZM1.09091 12C1.09091 18.0249 5.97506 22.9091 12 22.9091C18.0249 22.9091 22.9091 18.0249 22.9091 12C22.9091 5.97506 18.0249 1.09093 12 1.09093C5.97506 1.09093 1.09091 5.97506 1.09091 12Z" fill="#B9B9B9"/>
</svg>
