<svg width="24" height="24" viewBox="0 0 24 24" fill="none" xmlns="http://www.w3.org/2000/svg">
<path d="M23.9366 13.2414C23.9785 12.8333 24 12.4192 24 12C24 11.5808 23.9785 11.1667 23.9366 10.7586H18.9793C17.8979 10.7586 16.8207 10.9962 15.7441 11.2635C15.5903 11.3017 15.4366 11.3405 15.2828 11.3793C14.2002 11.6524 13.1177 11.9254 12.0313 11.9871C12.8431 11.2625 13.8016 10.6902 14.7602 10.1178C15.8496 9.46731 16.939 8.81681 17.8129 7.94284L21.3179 4.43786C21.0685 4.13092 20.8042 3.83653 20.5262 3.55581L20.4442 3.47382C20.1635 3.19585 19.8692 2.93163 19.5623 2.68226L16.0573 6.18726C15.1834 7.06124 14.5329 8.15063 13.8824 9.24003C13.31 10.1986 12.7375 11.1573 12.0129 11.9691C12.0745 10.8826 12.3476 9.79989 12.6207 8.71723C12.931 7.48694 13.2414 6.25664 13.2414 5.02066V0.0634308C12.8333 0.0214909 12.4192 0 12 0C11.5808 0 11.1667 0.0214909 10.7586 0.0634308V5.02066C10.7586 6.25664 11.069 7.48693 11.3793 8.71722C11.6524 9.79974 11.9255 10.8823 11.9871 11.9687C11.2625 11.1569 10.6902 10.1984 10.1178 9.23984C9.46731 8.15045 8.81681 7.06105 7.94284 6.18708L4.43786 2.6821C4.13091 2.93151 3.83653 3.19579 3.5558 3.47384L3.47384 3.5558C3.19585 3.83646 2.93163 4.13078 2.68226 4.43765L6.18726 7.94265C7.06123 8.81662 8.15063 9.46712 9.24001 10.1176C10.1986 10.69 11.1573 11.2625 11.9691 11.9871C10.8826 11.9255 9.79989 11.6524 8.71723 11.3793C7.56383 11.0884 6.41043 10.7974 5.25234 10.7622C5.17514 10.7598 5.09791 10.7586 5.02066 10.7586H0.0634308C0.0214909 11.1667 0 11.5808 0 12C0 12.4192 0.0214909 12.8333 0.0634308 13.2414H5.02066C6.25664 13.2414 7.48695 12.931 8.71724 12.6207C8.85336 12.5864 8.98948 12.552 9.12561 12.5181C10.0721 12.2823 11.0189 12.0668 11.9687 12.0129C11.1569 12.7375 10.1984 13.3098 9.23984 13.8822C8.15045 14.5327 7.06105 15.1832 6.18708 16.0572L2.6821 19.5621C2.93149 19.8691 3.19575 20.1634 3.47377 20.4441L3.55586 20.5262C3.8365 20.8042 4.1308 21.0684 4.43765 21.3177L7.94265 17.8127C8.81663 16.9388 9.46713 15.8494 10.1176 14.76C10.69 13.8014 11.2625 12.8427 11.9871 12.0309C11.9255 13.1174 11.6524 14.2001 11.3793 15.2828C11.069 16.5131 10.7586 17.7434 10.7586 18.9793V23.9366C11.1667 23.9785 11.5808 24 12 24C12.4192 24 12.8333 23.9785 13.2414 23.9366V18.9793C13.2414 17.7434 12.931 16.5131 12.6207 15.2828C12.3476 14.2003 12.0745 13.1177 12.0129 12.0313C12.7375 12.8431 13.3098 13.8016 13.8822 14.7602C14.5327 15.8496 15.1832 16.9389 16.0572 17.8129L19.5621 21.3179C19.8691 21.0685 20.1634 20.8042 20.4441 20.5262L20.5262 20.4441C20.8042 20.1635 21.0684 19.8692 21.3177 19.5623L17.8127 16.0573C16.9388 15.1834 15.8494 14.5329 14.76 13.8824C13.8014 13.31 12.8427 12.7375 12.0309 12.0129C12.9808 12.0667 13.9278 12.2823 14.8744 12.5181C15.01 12.5519 15.146 12.5862 15.2816 12.6204L15.2828 12.6207C16.4362 12.9116 17.5896 13.2026 18.7477 13.2378C18.8249 13.2402 18.9021 13.2414 18.9793 13.2414H23.9366Z" fill="#3F892C"/>
</svg>
