<svg width="34" height="15" viewBox="0 0 34 15" fill="none" xmlns="http://www.w3.org/2000/svg">
<path d="M0.761364 15V0.454545H5.67614C6.81724 0.454545 7.75 0.660511 8.47443 1.07244C9.2036 1.47964 9.74337 2.03125 10.0938 2.72727C10.4441 3.4233 10.6193 4.19981 10.6193 5.05682C10.6193 5.91383 10.4441 6.69271 10.0938 7.39347C9.74811 8.09422 9.21307 8.65294 8.48864 9.0696C7.7642 9.48153 6.83617 9.6875 5.70455 9.6875H2.18182V8.125H5.64773C6.42898 8.125 7.05634 7.99006 7.52983 7.72017C8.00331 7.45028 8.34659 7.0857 8.55966 6.62642C8.77746 6.16241 8.88636 5.6392 8.88636 5.05682C8.88636 4.47443 8.77746 3.9536 8.55966 3.49432C8.34659 3.03504 8.00095 2.67519 7.52273 2.41477C7.04451 2.14962 6.41004 2.01705 5.61932 2.01705H2.52273V15H0.761364ZM16.5453 15H12.0567V0.454545H16.7442C18.1552 0.454545 19.3625 0.745738 20.3663 1.32812C21.3701 1.90578 22.1395 2.73674 22.6746 3.82102C23.2096 4.90057 23.4771 6.19318 23.4771 7.69886C23.4771 9.21401 23.2072 10.5185 22.6675 11.6122C22.1277 12.7012 21.3417 13.5393 20.3095 14.1264C19.2773 14.7088 18.0226 15 16.5453 15ZM13.818 13.4375H16.4317C17.6343 13.4375 18.631 13.2055 19.4217 12.7415C20.2125 12.2775 20.8019 11.617 21.1902 10.7599C21.5785 9.90294 21.7726 8.88258 21.7726 7.69886C21.7726 6.52462 21.5808 5.51373 21.1973 4.66619C20.8138 3.81392 20.2409 3.16051 19.4786 2.70597C18.7162 2.24669 17.7669 2.01705 16.6305 2.01705H13.818V13.4375ZM25.0317 15V0.454545H33.7533V2.01705H26.793V6.93182H33.0999V8.49432H26.793V15H25.0317Z" fill="#B9B9B9"/>
</svg>
