<svg width="143" height="50" viewBox="0 0 143 50" fill="none" xmlns="http://www.w3.org/2000/svg">
<path d="M14.5547 0.34375C18.7266 0.34375 21.8672 1.42188 23.9766 3.57812C26.0859 5.71875 27.1406 8.5625 27.1406 12.1094C27.1406 18.1719 23.6172 22.0234 16.5703 23.6641C16.0547 23.7891 15.3281 23.9453 14.3906 24.1328C13.4375 24.3203 12.7344 24.4766 12.2812 24.6016C11.8438 24.7109 11.2812 24.8984 10.5938 25.1641C9.92188 25.4141 9.4375 25.7031 9.14062 26.0312C8.85938 26.3438 8.51562 26.7812 8.10938 27.3438C7.71875 27.9062 7.44531 28.5781 7.28906 29.3594C7.14844 30.1406 7.01562 31.0859 6.89062 32.1953C6.78125 33.3047 6.72656 34.6016 6.72656 36.0859H27.6797V40H2.8125C2.8125 39.3438 2.79688 38.7188 2.76562 38.125C2.75 37.5156 2.74219 36.8359 2.74219 36.0859C2.74219 33.9609 2.82812 32.1406 3 30.625C3.1875 29.1094 3.52344 27.8047 4.00781 26.7109C4.50781 25.6016 5.03125 24.7031 5.57812 24.0156C6.125 23.3281 6.9375 22.7188 8.01562 22.1875C9.09375 21.6562 10.1172 21.25 11.0859 20.9688C12.0547 20.6719 13.3906 20.3359 15.0938 19.9609C16.25 19.6953 17.2656 19.3906 18.1406 19.0469C19.0312 18.7031 19.7656 18.3125 20.3438 17.875C20.9375 17.4375 21.4219 16.9922 21.7969 16.5391C22.1719 16.0703 22.4609 15.5391 22.6641 14.9453C22.8672 14.3516 23 13.7812 23.0625 13.2344C23.1406 12.6875 23.1797 12.0547 23.1797 11.3359C23.1797 9.39844 22.4922 7.74219 21.1172 6.36719C19.7422 4.97656 17.8672 4.28125 15.4922 4.28125C14.2891 4.28125 13.1484 4.39844 12.0703 4.63281C11.0078 4.86719 9.99219 5.23438 9.02344 5.73438C8.07031 6.23437 7.28906 6.94531 6.67969 7.86719C6.07031 8.77344 5.70312 9.83594 5.57812 11.0547H1.6875C1.875 7.94531 3.10938 5.38281 5.39062 3.36719C7.67188 1.35156 10.7266 0.34375 14.5547 0.34375ZM98.0859 0.34375C102.258 0.34375 105.398 1.42188 107.508 3.57812C109.617 5.71875 110.672 8.5625 110.672 12.1094C110.672 18.1719 107.148 22.0234 100.102 23.6641C99.5859 23.7891 98.8594 23.9453 97.9219 24.1328C96.9688 24.3203 96.2656 24.4766 95.8125 24.6016C95.375 24.7109 94.8125 24.8984 94.125 25.1641C93.4531 25.4141 92.9688 25.7031 92.6719 26.0312C92.3906 26.3438 92.0469 26.7812 91.6406 27.3438C91.25 27.9062 90.9766 28.5781 90.8203 29.3594C90.6797 30.1406 90.5469 31.0859 90.4219 32.1953C90.3125 33.3047 90.2578 34.6016 90.2578 36.0859H111.211V40H86.3438C86.3438 39.3438 86.3281 38.7188 86.2969 38.125C86.2812 37.5156 86.2734 36.8359 86.2734 36.0859C86.2734 33.9609 86.3594 32.1406 86.5312 30.625C86.7188 29.1094 87.0547 27.8047 87.5391 26.7109C88.0391 25.6016 88.5625 24.7031 89.1094 24.0156C89.6562 23.3281 90.4688 22.7188 91.5469 22.1875C92.625 21.6562 93.6484 21.25 94.6172 20.9688C95.5859 20.6719 96.9219 20.3359 98.625 19.9609C99.7812 19.6953 100.797 19.3906 101.672 19.0469C102.562 18.7031 103.297 18.3125 103.875 17.875C104.469 17.4375 104.953 16.9922 105.328 16.5391C105.703 16.0703 105.992 15.5391 106.195 14.9453C106.398 14.3516 106.531 13.7812 106.594 13.2344C106.672 12.6875 106.711 12.0547 106.711 11.3359C106.711 9.39844 106.023 7.74219 104.648 6.36719C103.273 4.97656 101.398 4.28125 99.0234 4.28125C97.8203 4.28125 96.6797 4.39844 95.6016 4.63281C94.5391 4.86719 93.5234 5.23438 92.5547 5.73438C91.6016 6.23437 90.8203 6.94531 90.2109 7.86719C89.6016 8.77344 89.2344 9.83594 89.1094 11.0547H85.2188C85.4062 7.94531 86.6406 5.38281 88.9219 3.36719C91.2031 1.35156 94.2578 0.34375 98.0859 0.34375ZM141.562 28.7266H136.055V40H132.117V28.7266H113.273V24.0625L130.617 1.11719H136.055V24.7891H141.562V28.7266ZM132.117 24.7891V4.21094L116.484 24.7891H132.117Z" fill="white"/>
<path d="M76.8943 22.069C76.9642 21.3888 77 20.6986 77 20C77 19.3014 76.9642 18.6112 76.8943 17.931H68.6322C66.8298 17.931 65.0345 18.327 63.2402 18.7726C62.9839 18.8362 62.7276 18.9009 62.4713 18.9655C60.6671 19.4206 58.8629 19.8757 57.0522 19.9785C58.4052 18.7709 60.0027 17.8169 61.6003 16.863C63.4159 15.7788 65.2316 14.6947 66.6882 13.2381L72.5298 7.39643C72.1142 6.88486 71.6737 6.39422 71.2103 5.92635L71.0737 5.78971C70.6059 5.32641 70.1154 4.88605 69.6039 4.47044L63.7622 10.3121C62.3056 11.7687 61.2215 13.5844 60.1373 15.4C59.1833 16.9977 58.2292 18.5954 57.0215 19.9485C57.1241 18.1376 57.5793 16.3331 58.0345 14.5287C58.5517 12.4782 59.069 10.4277 59.069 8.36777V0.105718C58.3888 0.0358181 57.6986 0 57 0C56.3014 0 55.6112 0.0358181 54.931 0.105718V8.36777C54.931 10.4277 55.4483 12.4782 55.9655 14.5287C56.4206 16.3329 56.8758 18.1371 56.9785 19.9478C55.7709 18.5948 54.8169 16.9973 53.863 15.3997C52.7789 13.5841 51.6947 11.7684 50.2381 10.3118L44.3964 4.47016C43.8849 4.88585 43.3942 5.32632 42.9263 5.78973L42.7897 5.92633C42.3264 6.3941 41.8861 6.88463 41.4704 7.39609L47.3121 13.2378C48.7687 14.6944 50.5844 15.7785 52.4 16.8627C53.9977 17.8167 55.5954 18.7708 56.9485 19.9785C55.1376 19.8759 53.3332 19.4207 51.5287 18.9655C49.6064 18.4806 47.6841 17.9957 45.7539 17.937C45.6252 17.9331 45.4965 17.931 45.3678 17.931H37.1057C37.0358 18.6112 37 19.3014 37 20C37 20.6986 37.0358 21.3888 37.1057 22.069H45.3678C47.4277 22.069 49.4782 21.5517 51.5287 21.0345C51.7556 20.9773 51.9825 20.92 52.2094 20.8635C53.7868 20.4705 55.3648 20.1113 56.9478 20.0215C55.5948 21.2291 53.9973 22.1831 52.3997 23.137C50.5841 24.2211 48.7684 25.3053 47.3118 26.7619L41.4702 32.6036C41.8858 33.1151 42.3263 33.6057 42.7896 34.0736L42.9264 34.2104C43.3942 34.6736 43.8847 35.114 44.3961 35.5296L50.2378 29.6879C51.6944 28.2313 52.7785 26.4156 53.8627 24.6C54.8167 23.0023 55.7708 21.4046 56.9786 20.0515C56.8759 21.8624 56.4207 23.6668 55.9655 25.4713C55.4483 27.5218 54.931 29.5723 54.931 31.6322V39.8943C55.6112 39.9642 56.3014 40 57 40C57.6986 40 58.3888 39.9642 59.069 39.8943V31.6322C59.069 29.5723 58.5517 27.5218 58.0345 25.4713C57.5794 23.6671 57.1242 21.8629 57.0215 20.0522C58.2291 21.4052 59.1831 23.0027 60.137 24.6003C61.2211 26.4159 62.3053 28.2316 63.7619 29.6882L69.6036 35.5298C70.1151 35.1142 70.6057 34.6737 71.0736 34.2104L71.2104 34.0736C71.6736 33.6058 72.114 33.1153 72.5296 32.6039L66.6879 26.7622C65.2313 25.3056 63.4156 24.2215 61.6 23.1373C60.0023 22.1833 58.4046 21.2292 57.0515 20.0215C58.6347 20.1112 60.213 20.4704 61.7906 20.8635C62.0167 20.9198 62.2433 20.977 62.4693 21.034L62.4713 21.0345C64.3936 21.5194 66.316 22.0043 68.2461 22.063C68.3748 22.0669 68.5035 22.069 68.6322 22.069H76.8943Z" fill="white"/>
</svg>
