<svg width="80" height="150" viewBox="0 0 80 150" fill="none" xmlns="http://www.w3.org/2000/svg">
<path opacity="0.5" d="M40.5 42.3994C40.281 41.2829 40.0619 40.1664 40.0111 39.0459L40.0001 39L39.9889 39.0336L39.9897 39.0324C39.94 40.1574 39.7201 41.2784 39.5001 42.3994C39.2501 43.6734 39.0001 44.9474 39.0001 46.2273V51.3606C38.9999 51.3825 39 51.4045 39.0001 51.4264C39.0001 51.4374 39.0001 51.4484 39.0001 51.4594V56.5927C38.9999 56.6146 39 56.6366 39.0001 56.6586C39.0001 56.6695 39.0001 56.6805 39.0001 56.6915V61.8248C38.9999 61.8467 39 61.8687 39.0001 61.8907C39.0001 61.9016 39.0001 61.9126 39.0001 61.9236V67.0569C38.9999 67.0788 39 67.1008 39.0001 67.1228C39.0001 67.1337 39.0001 67.1447 39.0001 67.1557V72.289C38.9999 72.3109 39 72.3329 39.0001 72.3549C39.0001 72.3658 39.0001 72.3768 39.0001 72.3878V77.5211C38.9999 77.5431 39 77.565 39.0001 77.587C39.0001 77.598 39.0001 77.6089 39.0001 77.6199V82.7532C38.9999 82.7752 39 82.7971 39.0001 82.8191C39.0001 82.8301 39.0001 82.841 39.0001 82.852V87.9853C38.9999 88.0073 39 88.0292 39.0001 88.0512C39.0001 88.0622 39.0001 88.0732 39.0001 88.0841V93.2174C38.9999 93.2394 39 93.2613 39.0001 93.2833C39.0001 93.2943 39.0001 93.3053 39.0001 93.3162V98.4495C38.9999 98.4715 39 98.4935 39.0001 98.5154C39.0001 98.5264 39.0001 98.5374 39.0001 98.5483V103.682C38.9999 103.704 39 103.726 39.0001 103.748C39.0001 103.758 39.0001 103.769 39.0001 103.78V108.914C38.9999 108.936 39 108.958 39.0001 108.98C39.0001 108.991 39.0001 109.002 39.0001 109.013V114.146C38.9999 114.168 39 114.19 39.0001 114.212C39.0001 114.223 39.0001 114.234 39.0001 114.245V119.378C38.9999 119.4 39 119.422 39.0001 119.444C39.0001 119.455 39.0001 119.466 39.0001 119.477V124.61C38.9999 124.632 39 124.654 39.0001 124.676C39.0001 124.687 39.0001 124.698 39.0001 124.709V129.842C38.9999 129.864 39 129.886 39.0001 129.908C39.0001 129.919 39.0001 129.93 39.0001 129.941V135.074C38.9999 135.096 39 135.118 39.0001 135.14C39.0001 135.151 39.0001 135.162 39.0001 135.173V140.306C38.9999 140.328 39 140.35 39.0001 140.372C39.0001 140.383 39.0001 140.394 39.0001 140.405V145.539C38.9999 145.56 39 145.582 39.0001 145.604C39.0001 145.615 39.0001 145.626 39.0001 145.637V150H40.9996L41 145.637C41 145.604 40.9998 145.571 40.9995 145.539L41 140.405C41 140.372 40.9998 140.339 40.9995 140.306L41 135.173C41 135.14 40.9998 135.107 40.9995 135.074L41 129.941C41 129.908 40.9998 129.875 40.9995 129.842L41 124.709C41 124.676 40.9998 124.643 40.9995 124.61L41 119.477C41 119.444 40.9998 119.411 40.9995 119.378L41 114.245C41 114.212 40.9998 114.179 40.9995 114.146L41 109.013C41 108.98 40.9998 108.947 40.9995 108.914L41 103.78C41 103.748 40.9998 103.715 40.9995 103.682L41 98.5483C41 98.5154 40.9998 98.4825 40.9995 98.4496L41 93.3162C41 93.2833 40.9998 93.2504 40.9995 93.2175L41 88.0841C41 88.0512 40.9998 88.0183 40.9995 87.9854L41 82.852C41 82.8191 40.9998 82.7862 40.9995 82.7533L41 77.6199C41 77.587 40.9998 77.5541 40.9995 77.5212L41 72.3878C41 72.3549 40.9998 72.322 40.9995 72.2891L41 67.1557C41 67.1228 40.9998 67.0899 40.9995 67.057L41 61.9236C41 61.8907 40.9998 61.8578 40.9995 61.8249L41 56.6915C41 56.6586 40.9998 56.6257 40.9995 56.5927L41 51.4594C41 51.4265 40.9998 51.3935 40.9995 51.3606L41 46.2273C41 44.9474 40.75 43.6734 40.5 42.3994Z" fill="#F0F0F0"/>
<path d="M40.1374 39.365C42.8516 41.7287 46.0519 43.599 49.2521 45.4693C52.9037 47.6034 56.5555 49.7375 59.485 52.6047L71.2348 64.1045C70.3669 65.1484 69.4363 66.159 68.4428 67.1314C67.4493 68.1038 66.4167 69.0146 65.3501 69.864L53.6003 58.3642C50.6707 55.497 48.4903 51.923 46.3098 48.3491C44.3912 45.2044 42.4726 42.0596 40.0437 39.3964C40.0438 39.398 40.0439 39.3997 40.044 39.4014L40 39.2938L40.1374 39.365Z" fill="#F0F0F0"/>
<path d="M40.1478 39.4506C43.7545 39.2219 47.3486 38.2359 50.9425 37.25C55.0435 36.125 59.1445 35 63.2645 35L79.7886 35C79.9284 36.4793 80 37.9805 80 39.5C80 41.0195 79.9284 42.5207 79.7886 44L63.2645 44C59.1445 44 55.0436 42.875 50.9426 41.75C47.3342 40.7601 43.7257 39.7702 40.1044 39.5467C40.1057 39.548 40.1069 39.5492 40.1082 39.5504L40 39.5L40.1478 39.4506Z" fill="#F0F0F0"/>
<path d="M40.0727 39.1593C42.4878 36.5029 44.3988 33.3707 46.3097 30.2386C48.4902 26.6646 50.6707 23.0906 53.6002 20.2234L65.35 8.72363C66.4167 9.573 67.4492 10.4839 68.4427 11.4562C69.4362 12.4286 70.3669 13.4392 71.2347 14.4831L59.485 25.9829C56.5554 28.8501 52.9037 30.9842 49.2521 33.1183C46.039 34.9961 42.8259 36.8739 40.1048 39.2511C40.1065 39.251 40.1082 39.2509 40.1099 39.2508L40 39.2938L40.0727 39.1593Z" fill="#F0F0F0"/>
<path d="M39.956 38.8559C39.7528 35.3393 38.8764 31.8352 38 28.331C37 24.3326 36 20.3341 36 16.3171L36 0.20615C37.3149 0.0698432 38.6494 -2.26688e-07 40 -3.42251e-07C41.3506 -4.57814e-07 42.6851 0.0698427 44 0.206149L44 16.3171C44 20.3341 43 24.3325 42 28.331C41.1201 31.8492 40.2402 35.3674 40.0415 38.8982C40.0426 38.897 40.0437 38.8957 40.0448 38.8945L40 39L39.956 38.8559Z" fill="#F0F0F0"/>
<path d="M39.8606 39.2248C37.1464 36.8611 33.9462 34.9908 30.746 33.1206C27.0943 30.9865 23.4426 28.8523 20.513 25.9851L8.76326 14.4854C9.6311 13.4414 10.5618 12.4308 11.5553 11.4585C12.5488 10.4861 13.5813 9.57522 14.648 8.72585L26.3977 20.2256C29.3273 23.0929 31.5078 26.6668 33.6883 30.2408C35.6069 33.3855 37.5255 36.5302 39.9543 39.1935C39.9542 39.1918 39.9541 39.1901 39.9541 39.1885L39.998 39.296L39.8606 39.2248Z" fill="#F0F0F0"/>
<path d="M39.8522 39.5494C36.2455 39.7781 32.6514 40.7641 29.0575 41.75C24.9565 42.875 20.8555 44 16.7355 44L0.211437 44C0.071636 42.5207 -3.99348e-07 41.0195 -6.02932e-07 39.5C-8.06517e-07 37.9805 0.0716352 36.4793 0.211436 35L16.7355 35C20.8555 35 24.9564 36.125 29.0574 37.25C32.6658 38.2399 36.2743 39.2298 39.8956 39.4533C39.8943 39.452 39.8931 39.4508 39.8918 39.4496L40 39.5L39.8522 39.5494Z" fill="#F0F0F0"/>
<path d="M39.9273 39.4286C37.5122 42.085 35.6012 45.2172 33.6903 48.3493C31.5098 51.9232 29.3293 55.4973 26.3998 58.3645L14.65 69.8643C13.5833 69.0149 12.5508 68.104 11.5573 67.1317C10.5638 66.1593 9.63312 65.1487 8.76528 64.1048L20.515 52.605C23.4446 49.7378 27.0963 47.6037 30.7479 45.4696C33.961 43.5918 37.1741 41.714 39.8952 39.3368C39.8935 39.3369 39.8918 39.337 39.8901 39.3371L40 39.2941L39.9273 39.4286Z" fill="#F0F0F0"/>
</svg>
