<svg width="170" height="170" viewBox="0 0 170 170" fill="none" xmlns="http://www.w3.org/2000/svg">
<path d="M170 85C170 131.944 131.944 170 84.9998 170C38.0556 170 -0.000228882 131.944 -0.000228882 85C-0.000228882 38.0558 38.0556 0 84.9998 0C131.944 0 170 38.0558 170 85Z" fill="#ECF3EA"/>
<path d="M103.268 122H69.7093V96.2895H43.9988V62.7105H69.7093V37H103.268V62.7105H128.978V96.2691H103.268V121.98V122ZM71.7531 119.956H101.224V94.2457H126.935V64.7543H101.224V39.0438H71.7531V64.7543H46.0426V94.2253H71.7531V119.936V119.956Z" fill="#3F892C"/>
<path d="M86.4886 94.0902C103.677 64.2104 86.4886 39.5218 86.4886 39.5218C86.4886 39.5218 69.3006 64.2104 86.4886 94.0902Z" fill="#D9E7D5"/>
<path d="M86.4886 95.112C86.1207 95.112 85.7937 94.9077 85.6098 94.6011C68.2991 64.517 85.4871 39.1948 85.6506 38.9495C86.0389 38.3977 86.9382 38.3977 87.3265 38.9495C87.5105 39.1948 104.678 64.5374 87.3674 94.6011C87.1835 94.9077 86.8565 95.112 86.4886 95.112ZM86.4886 41.4838C83.3821 46.8997 73.4085 67.6643 86.4886 91.9851C99.5686 67.6439 89.5951 46.8793 86.4886 41.4838Z" fill="#3F892C"/>
<path d="M86.4886 95.2347C76.3107 68.1548 51.1315 66.1111 51.1315 66.1111C51.1315 66.1111 57.9577 90.4318 86.4886 95.2347Z" fill="#D9E7D5"/>
<path d="M86.4886 96.2565C86.4886 96.2565 86.366 96.2565 86.3251 96.2565C57.4876 91.3924 50.2118 66.6424 50.1505 66.3972C50.0688 66.0702 50.1505 65.7227 50.3549 65.4775C50.5593 65.2118 50.8863 65.0892 51.2337 65.1096C51.4994 65.1301 77.169 67.5213 87.4696 94.8872C87.5922 95.2346 87.5309 95.623 87.3061 95.8887C87.1017 96.1339 86.8156 96.2565 86.509 96.2565H86.4886ZM52.6644 67.3782C54.6877 72.5693 62.8218 89.3895 84.874 93.9062C76.2085 73.1212 58.1416 68.3592 52.6644 67.3782Z" fill="#3F892C"/>
<path d="M86.4886 95.5004C67.0729 89.0012 54.7081 101.897 54.7081 101.897C54.7081 101.897 71.0991 109.01 86.4886 95.5004Z" fill="#D9E7D5"/>
<path d="M65.2948 104.738C58.8569 104.738 54.3811 102.858 54.2994 102.817C53.9928 102.694 53.768 102.408 53.7067 102.081C53.6454 101.754 53.7475 101.407 53.9724 101.182C54.095 101.039 67.0115 87.8772 86.8156 94.5194C87.163 94.642 87.4287 94.9281 87.49 95.296C87.5718 95.6639 87.4287 96.0318 87.163 96.2566C79.4785 103.001 71.4669 104.738 65.2948 104.738ZM56.6701 101.509C60.8394 102.817 72.6728 105.229 84.404 95.9092C70.1385 91.9238 60.0423 98.7295 56.6701 101.509Z" fill="#3F892C"/>
<path d="M86.4886 95.2347C96.6665 68.1548 121.846 66.1111 121.846 66.1111C121.846 66.1111 115.019 90.4318 86.4886 95.2347Z" fill="#D9E7D5"/>
<path d="M86.4886 96.2565C86.182 96.2565 85.8959 96.1135 85.6915 95.8887C85.4667 95.6025 85.3849 95.2142 85.528 94.8872C95.8286 67.5213 121.498 65.1301 121.764 65.1096C122.111 65.0892 122.418 65.2118 122.643 65.4775C122.847 65.7432 122.929 66.0906 122.847 66.3972C122.786 66.6424 115.51 91.3924 86.6725 96.2565C86.6112 96.2565 86.5499 96.2565 86.509 96.2565H86.4886ZM120.333 67.3782C114.856 68.3592 96.7891 73.1212 88.1236 93.9062C110.155 89.3895 118.31 72.5693 120.333 67.3782Z" fill="#3F892C"/>
<path d="M86.4885 95.5004C105.904 89.0012 118.269 101.897 118.269 101.897C118.269 101.897 101.878 109.01 86.4885 95.5004Z" fill="#D9E7D5"/>
<path d="M107.682 104.738C101.49 104.738 93.4987 103.001 85.8141 96.2566C85.5485 96.0113 85.4054 95.6435 85.4871 95.296C85.5689 94.9281 85.8141 94.642 86.1616 94.5194C105.945 87.8772 118.882 101.039 119.005 101.182C119.23 101.427 119.332 101.754 119.271 102.081C119.209 102.408 118.984 102.694 118.678 102.817C118.596 102.858 114.12 104.738 107.682 104.738ZM88.5937 95.9092C100.325 105.229 112.179 102.797 116.348 101.489C113.017 98.6887 103.043 91.8625 88.5937 95.9092Z" fill="#3F892C"/>
<path d="M86.4886 112.688C85.9163 112.688 85.4667 112.239 85.4667 111.666V96.6653C85.4667 96.093 85.9163 95.6434 86.4886 95.6434C87.0609 95.6434 87.5105 96.093 87.5105 96.6653V111.666C87.5105 112.239 87.0609 112.688 86.4886 112.688Z" fill="#3F892C"/>
<path d="M94.1322 108.029C93.8052 108.029 93.4782 107.865 93.2738 107.559L85.6302 95.7865C85.3236 95.3165 85.4667 94.6829 85.9367 94.3763C86.4068 94.0698 87.0404 94.2128 87.3469 94.6829L94.9906 106.455C95.2972 106.925 95.1541 107.559 94.684 107.865C94.5205 107.967 94.3162 108.029 94.1322 108.029Z" fill="#3F892C"/>
<path d="M78.8449 108.029C78.661 108.029 78.4566 107.967 78.2931 107.865C77.823 107.559 77.68 106.925 77.9865 106.455L85.6302 94.6829C85.9368 94.2128 86.5703 94.0698 87.0404 94.3763C87.5105 94.6829 87.6535 95.3165 87.347 95.7865L79.7033 107.559C79.4989 107.865 79.1719 108.029 78.8449 108.029Z" fill="#3F892C"/>
</svg>
