<svg width="170" height="170" viewBox="0 0 170 170" fill="none" xmlns="http://www.w3.org/2000/svg">
<circle cx="85" cy="85" r="85" fill="#ECF3EA"/>
<path d="M107.837 121H89.7994C89.2369 121 88.795 120.557 88.795 119.993V115.522C88.554 114.333 86.8868 104.666 92.5713 98.6841C96.2472 94.817 99.5815 93.3065 102.012 92.2189C103.358 91.6147 104.422 91.1313 105.085 90.4465L112.216 83.2965C114.004 81.504 117.017 81.3227 118.985 82.8131L122.36 77.7377C122.32 76.6501 122.279 73.0247 122.882 68.0902C123.224 65.3712 124.268 63.4176 126.016 62.2696C128.727 60.477 132.062 61.4438 132.202 61.4841C132.624 61.6049 132.925 62.0077 132.925 62.4508L132.825 80.8796C132.825 81.0005 132.805 81.1213 132.765 81.222L127.181 96.0859C127.14 96.2269 127.06 96.3477 126.96 96.4484L110.288 113.165C108.942 114.515 108.922 115.461 108.922 115.481L108.841 120.013C108.841 120.557 108.379 121 107.837 121ZM90.8037 118.986H106.853L106.913 115.481C106.913 115.481 106.853 113.749 108.862 111.735L125.373 95.1796L130.816 80.6782L130.917 63.2565C130.013 63.1356 128.406 63.0953 127.12 63.9412C125.895 64.7469 125.152 66.2171 124.891 68.3118C124.188 73.9713 124.389 77.9189 124.389 77.9592C124.389 78.1808 124.348 78.3822 124.228 78.5634L120.391 84.364C120.853 85.1495 121.094 86.0357 121.094 86.9823C121.094 88.372 120.552 89.6811 119.568 90.668L109.685 100.577C109.283 100.98 108.661 100.98 108.259 100.577C107.857 100.174 107.857 99.5501 108.259 99.1473L118.142 89.238C118.744 88.6338 119.066 87.8282 119.066 86.9823C119.066 86.1364 118.744 85.3307 118.142 84.7265C116.936 83.5181 114.847 83.5181 113.642 84.7265L106.511 91.8765C105.587 92.803 104.302 93.387 102.836 94.0517C100.425 95.1393 97.4323 96.4887 94.0175 100.094C88.8151 105.552 90.7434 115.139 90.7635 115.24C90.7635 115.3 90.7836 115.381 90.7836 115.441V119.006L90.8037 118.986Z" fill="#3F892C"/>
<path d="M82.1461 121H64.1083C63.566 121 63.104 120.557 63.104 120.013L63.0236 115.522C63.0236 115.522 63.0035 114.515 61.6577 113.166L44.9858 96.4487C44.8854 96.348 44.8051 96.2271 44.7649 96.0862L39.1607 81.2424C39.1205 81.1216 39.1005 81.0209 39.1005 80.9L39 62.4511C39 62.008 39.3013 61.6052 39.7231 61.4843C39.8637 61.444 43.1981 60.4974 45.9098 62.2698C47.6574 63.4178 48.7019 65.3715 49.0433 68.0905C49.666 73.0451 49.6058 76.6503 49.5857 77.7379L52.9602 82.8134C54.989 81.2827 57.9015 81.4438 59.7294 83.2968L66.8602 90.4467C67.523 91.1114 68.5876 91.5948 69.9334 92.2191C72.3639 93.3269 75.6983 94.8173 79.3741 98.6843C85.0587 104.666 83.3915 114.334 83.1504 115.522V119.993C83.1504 120.557 82.7085 121 82.1461 121ZM65.0926 118.986H81.1418V115.421C81.1418 115.421 81.1418 115.28 81.1619 115.22C81.1819 115.119 83.1103 105.552 77.9078 100.074C74.4931 96.489 71.5002 95.1395 69.0898 94.0318C67.6235 93.3671 66.3379 92.7831 65.4139 91.8566L58.2832 84.7066C57.0378 83.4579 55.0292 83.4579 53.7838 84.7066C53.1812 85.3108 52.8598 86.1165 52.8598 86.9624C52.8598 87.8083 53.1812 88.6139 53.7838 89.2182L63.6664 99.1274C64.0681 99.5302 64.0681 100.155 63.6664 100.557C63.2647 100.96 62.642 100.96 62.2402 100.557L52.3576 90.6481C51.3734 89.6612 50.831 88.3521 50.831 86.9624C50.831 86.0359 51.0721 85.1296 51.5341 84.3441L47.6975 78.5435C47.577 78.3623 47.5168 78.1407 47.5368 77.9393C47.5368 77.899 47.7377 73.9515 47.0347 68.2919C46.7735 66.1973 46.0303 64.727 44.8051 63.9214C43.4994 63.0553 41.9126 63.1157 41.0087 63.2366L41.1091 80.6583L46.5526 95.1597L63.0638 111.715C65.0725 113.729 65.0323 115.381 65.0122 115.562L65.0725 118.966L65.0926 118.986Z" fill="#3F892C"/>
<path d="M99.8629 68.7146C99.8629 76.4084 93.636 82.6319 85.983 82.6319C78.33 82.6319 72.1031 76.3883 72.1031 68.7146C72.1031 61.041 85.983 39.007 85.983 39.007C85.983 39.007 99.8629 61.0209 99.8629 68.7146Z" fill="#D9E7D5"/>
<path d="M85.9826 83.639C77.7672 83.639 71.0984 76.9321 71.0984 68.7147C71.0984 60.4972 84.5565 39.3696 85.1189 38.4632C85.2997 38.1813 85.621 38 85.9625 38C86.304 38 86.6254 38.1813 86.8062 38.4632C87.3887 39.3696 100.847 60.8195 100.847 68.7147C100.847 76.6098 94.1579 83.639 85.9625 83.639H85.9826ZM85.9826 40.9204C82.9897 45.8146 73.1071 62.471 73.1071 68.7147C73.1071 75.8445 78.892 81.6249 85.9826 81.6249C93.0732 81.6249 98.8581 75.8244 98.8581 68.7147C98.8581 62.471 88.9755 45.8146 85.9826 40.9204Z" fill="#3F892C"/>
<path d="M85.9826 92.098C85.4202 92.098 84.9783 91.655 84.9783 91.091V39.007C84.9783 38.4431 85.4202 38 85.9826 38C86.545 38 86.9869 38.4431 86.9869 39.007V91.091C86.9869 91.655 86.545 92.098 85.9826 92.098Z" fill="#3F892C"/>
<path d="M85.9826 75.6027C85.7215 75.6027 85.4604 75.502 85.2796 75.3006C84.8778 74.8978 84.8778 74.2735 85.2796 73.8706L93.1937 65.9352C93.5954 65.5324 94.2181 65.5324 94.6199 65.9352C95.0216 66.338 95.0216 66.9624 94.6199 67.3652L86.7057 75.3006C86.5049 75.502 86.2437 75.6027 86.0027 75.6027H85.9826Z" fill="#3F892C"/>
<path d="M85.2997 68.2111C85.0385 68.2111 84.7774 68.1104 84.5966 67.909L78.6108 61.907C78.2091 61.5042 78.2091 60.8798 78.6108 60.477C79.0125 60.0742 79.6352 60.0742 80.037 60.477L86.0228 66.479C86.4245 66.8818 86.4245 67.5061 86.0228 67.909C85.8219 68.1104 85.5608 68.2111 85.3197 68.2111H85.2997Z" fill="#3F892C"/>
</svg>
