<svg width="170" height="170" viewBox="0 0 170 170" fill="none" xmlns="http://www.w3.org/2000/svg">
<circle cx="85" cy="85" r="85" fill="#ECF3EA"/>
<path d="M85.9763 81.9763C105.36 81.9763 121.065 66.2677 121.065 46.8792C101.681 46.8792 85.9763 62.5878 85.9763 81.9763Z" fill="#D9E7D5"/>
<path d="M85.9763 83.1262C85.3325 83.1262 84.8266 82.6202 84.8266 81.9762C84.8266 61.9897 101.083 45.7292 121.065 45.7292C121.709 45.7292 122.215 46.2352 122.215 46.8791C122.215 66.8656 105.958 83.1262 85.9763 83.1262ZM119.892 48.0521C102.118 48.6501 87.7468 63.0247 87.149 80.8033C104.923 80.2053 119.294 65.8306 119.892 48.0521Z" fill="#3F892C"/>
<path d="M85.9763 81.9763C85.9763 101.365 101.681 117.073 121.065 117.073C121.065 97.6849 105.36 81.9763 85.9763 81.9763Z" fill="#D9E7D5"/>
<path d="M121.065 118.223C101.083 118.223 84.8266 101.963 84.8266 81.9763C84.8266 81.3323 85.3325 80.8264 85.9763 80.8264C105.958 80.8264 122.215 97.0869 122.215 117.073C122.215 117.717 121.709 118.223 121.065 118.223ZM87.149 83.1493C87.7468 100.951 102.118 115.302 119.892 115.9C119.294 98.0989 104.923 83.7473 87.149 83.1493Z" fill="#3F892C"/>
<path d="M85.9763 81.9763C85.9763 62.5878 70.2715 46.8792 50.8878 46.8792C50.8878 66.2677 66.5925 81.9763 85.9763 81.9763Z" fill="#D9E7D5"/>
<path d="M85.9763 83.1262C65.9947 83.1262 49.7381 66.8657 49.7381 46.8792C49.7381 46.2352 50.244 45.7292 50.8878 45.7292C70.8694 45.7292 87.126 61.9898 87.126 81.9763C87.126 82.6203 86.6201 83.1262 85.9763 83.1262ZM52.0605 48.0521C52.6583 65.8537 67.0294 80.2053 84.8036 80.8033C84.2058 63.0018 69.8347 48.6501 52.0605 48.0521Z" fill="#3F892C"/>
<path d="M85.9763 81.9763C66.5925 81.9763 50.8878 97.6849 50.8878 117.073C70.2715 117.073 85.9763 101.365 85.9763 81.9763Z" fill="#D9E7D5"/>
<path d="M50.8878 118.223C50.244 118.223 49.7381 117.717 49.7381 117.073C49.7381 97.0869 65.9947 80.8264 85.9763 80.8264C86.6201 80.8264 87.126 81.3323 87.126 81.9763C87.126 101.963 70.8694 118.223 50.8878 118.223ZM84.8036 83.1493C67.0064 83.7473 52.6583 98.1219 52.0605 115.9C69.8577 115.302 84.2058 100.928 84.8036 83.1493Z" fill="#3F892C"/>
<path d="M85.976 128.987C85.6081 128.987 85.2632 128.803 85.0562 128.504L71.6738 110.197C71.3059 109.691 71.4209 108.955 71.9268 108.587C72.4326 108.219 73.1684 108.334 73.5363 108.84L85.999 125.859L98.4616 108.84C98.8295 108.334 99.5653 108.219 100.071 108.587C100.577 108.955 100.692 109.691 100.324 110.197L86.9417 128.504C86.7348 128.803 86.3899 128.987 86.022 128.987H85.976Z" fill="#3F892C"/>
<path d="M113.523 96.535C113.178 96.535 112.81 96.374 112.603 96.052C112.235 95.546 112.35 94.81 112.856 94.442L129.894 81.9764L112.856 69.5107C112.35 69.1427 112.235 68.4067 112.603 67.9007C112.971 67.3947 113.707 67.2797 114.212 67.6477L132.515 81.0334C132.814 81.2404 132.975 81.5854 132.975 81.9534C132.975 82.3214 132.791 82.6663 132.515 82.8733L114.212 96.259C114.006 96.42 113.776 96.489 113.523 96.489V96.535Z" fill="#3F892C"/>
<path d="M58.4527 96.5349C58.2228 96.5349 57.9699 96.4659 57.7859 96.3049L39.4599 82.9192C39.161 82.7122 39 82.3673 39 81.9993C39 81.6313 39.184 81.2863 39.4599 81.0793L57.7629 67.6936C58.2688 67.3256 59.0046 67.4406 59.3725 67.9466C59.7404 68.4526 59.6254 69.1886 59.1196 69.5566L42.1042 81.9763L59.1426 94.4419C59.6484 94.8099 59.7634 95.5459 59.3955 96.0519C59.1655 96.3509 58.8206 96.5349 58.4757 96.5349H58.4527Z" fill="#3F892C"/>
<path d="M72.5936 55.596C72.3636 55.596 72.1107 55.527 71.9268 55.366C71.4209 54.998 71.3059 54.262 71.6738 53.756L85.0562 35.4485C85.4931 34.8505 86.4818 34.8505 86.9187 35.4485L100.301 53.756C100.669 54.262 100.554 54.998 100.048 55.366C99.5423 55.734 98.8065 55.619 98.4386 55.113L85.976 38.0704L73.5133 55.113C73.2834 55.412 72.9385 55.596 72.5936 55.596Z" fill="#3F892C"/>
<path d="M74.8703 94.074C74.5714 94.074 74.2725 93.959 74.0655 93.729C73.6056 93.269 73.6056 92.556 74.0655 92.096L95.9326 70.2236C96.3925 69.7636 97.1053 69.7636 97.5652 70.2236C98.025 70.6836 98.025 71.3966 97.5652 71.8566L75.6981 93.729C75.4681 93.959 75.1692 94.074 74.8933 94.074H74.8703Z" fill="#3F892C"/>
<path d="M96.7374 94.074C96.4385 94.074 96.1396 93.959 95.9326 93.729L74.0655 71.8566C73.6056 71.3966 73.6056 70.6836 74.0655 70.2236C74.5254 69.7636 75.2382 69.7636 75.6981 70.2236L97.5652 92.096C98.025 92.556 98.025 93.269 97.5652 93.729C97.3352 93.959 97.0363 94.074 96.7604 94.074H96.7374Z" fill="#3F892C"/>
</svg>
