<svg width="170" height="170" viewBox="0 0 170 170" fill="none" xmlns="http://www.w3.org/2000/svg">
<path d="M87.3247 2.16281C87.3247 0.976751 86.3479 0 85.1619 0C83.9758 0 82.9991 0.976751 82.9991 2.16281C82.9991 3.34886 83.9758 4.32561 85.1619 4.32561C86.3479 4.32561 87.3247 3.34886 87.3247 2.16281Z" fill="#3F892C"/>
<path d="M67.9292 2.37233C67.5804 2.16303 67.1618 2.09326 66.7431 2.09326C66.6036 2.09326 66.4641 2.09326 66.3245 2.09326C65.1385 2.37233 64.4408 3.48862 64.7199 4.67468C64.8594 5.23282 65.2082 5.7212 65.6966 6.00027C66.185 6.27934 66.7431 6.41888 67.3013 6.27934C67.8594 6.1398 68.3478 5.79096 68.6269 5.30259C68.906 4.81421 69.0455 4.25607 68.906 3.69793C68.6967 3.20955 68.4176 2.72117 67.9292 2.37233Z" fill="#3F892C"/>
<path d="M49.9988 8.3025C49.7895 8.23273 49.5105 8.16296 49.3012 8.16296C48.9523 8.16296 48.6733 8.23273 48.3942 8.37227C47.9058 8.65134 47.4872 9.06995 47.2779 9.62809C47.0686 10.1862 47.1384 10.7444 47.3477 11.2328C47.836 12.2793 49.1616 12.7677 50.2081 12.2095C50.6965 11.9304 51.1151 11.5118 51.3244 10.9537C51.5337 10.3955 51.464 9.8374 51.2547 9.34902C50.9756 8.86064 50.557 8.5118 49.9988 8.3025Z" fill="#3F892C"/>
<path d="M33.394 22.3259C33.9522 22.3957 34.5103 22.2561 34.9987 21.8375C35.9057 21.0701 36.0452 19.7445 35.3475 18.8375C34.9987 18.4189 34.5103 18.1398 33.8824 18.0701C33.8126 18.0701 33.7429 18.0701 33.6033 18.0701C33.1149 18.0701 32.6266 18.2096 32.2777 18.5584C31.3707 19.3259 31.2312 20.6515 31.9289 21.5585C32.2777 21.9771 32.7661 22.2561 33.394 22.3259Z" fill="#3F892C"/>
<path d="M22.1613 34.6047C22.5102 34.1861 22.6497 33.6279 22.6497 33C22.5799 32.4419 22.3009 31.9535 21.8823 31.5349C21.5334 31.2558 21.045 31.0465 20.5567 31.0465C20.4869 31.0465 20.4171 31.0465 20.2776 31.0465C19.7195 31.1163 19.2311 31.3953 18.8125 31.814C18.4636 32.2326 18.3241 32.7907 18.3241 33.4186C18.3939 33.9768 18.6729 34.4651 19.0915 34.8837C20.0683 35.721 21.4637 35.5117 22.1613 34.6047Z" fill="#3F892C"/>
<path d="M9.74267 50.8606C10.231 51.1396 10.859 51.1396 11.3473 50.9303C11.8357 50.721 12.3241 50.3722 12.6032 49.8141C12.8822 49.3257 12.8822 48.6978 12.6729 48.2094C12.4636 47.721 12.1148 47.2326 11.5566 46.9536C11.2776 46.814 10.9287 46.7443 10.6496 46.7443C9.8822 46.7443 9.11475 47.1629 8.69615 47.9303C8.20777 49.1164 8.69615 50.3722 9.74267 50.8606Z" fill="#3F892C"/>
<path d="M4.09142 68.5121C4.64956 68.6516 5.2077 68.5121 5.69608 68.233C6.18445 67.9539 6.53329 67.4656 6.67283 66.9074C6.9519 65.7214 6.18445 64.6051 5.06817 64.326C4.92863 64.2562 4.71933 64.2562 4.57979 64.2562C4.16118 64.2562 3.81234 64.3958 3.4635 64.6051C2.97513 64.8841 2.62629 65.3725 2.48675 65.9307C2.20768 67.1167 2.90536 68.3028 4.09142 68.5121Z" fill="#3F892C"/>
<path d="M2.4868 82.6749C1.30074 82.6749 0.32399 83.6517 0.32399 84.8377C0.32399 86.0238 1.30074 87.0005 2.4868 87.0005C3.67285 87.0005 4.6496 86.0238 4.6496 84.8377C4.6496 83.6517 3.67285 82.6749 2.4868 82.6749Z" fill="#3F892C"/>
<path d="M5.69608 101.442C5.34724 101.233 4.92863 101.094 4.57979 101.094C4.44026 101.094 4.23095 101.094 4.09142 101.163C2.90536 101.442 2.20768 102.559 2.48675 103.745C2.62629 104.303 2.97513 104.791 3.4635 105.07C3.95188 105.349 4.51002 105.489 5.06817 105.349C5.62631 105.21 6.11469 104.861 6.39376 104.373C6.67283 103.884 6.81237 103.326 6.67283 102.768C6.5333 102.21 6.18446 101.721 5.69608 101.442Z" fill="#3F892C"/>
<path d="M11.3473 118.675C11.138 118.606 10.8589 118.536 10.6496 118.536C10.3008 118.536 10.0217 118.606 9.74265 118.745C8.69614 119.234 8.20776 120.559 8.7659 121.606C9.25428 122.652 10.5799 123.141 11.6264 122.582C12.6729 122.094 13.1613 120.768 12.6031 119.722C12.3241 119.303 11.9055 118.885 11.3473 118.675Z" fill="#3F892C"/>
<path d="M21.8823 138.071C22.3009 137.722 22.58 137.233 22.6498 136.605C22.7195 136.047 22.58 135.489 22.1614 135.001C21.8125 134.582 21.3242 134.303 20.6963 134.233C20.6265 134.233 20.5567 134.233 20.4172 134.233C19.9288 134.233 19.4404 134.373 19.0916 134.722C18.673 135.071 18.3939 135.559 18.3241 136.187C18.2544 136.745 18.3939 137.303 18.8125 137.791C19.58 138.698 20.9056 138.838 21.8823 138.071Z" fill="#3F892C"/>
<path d="M33.8126 151.606C34.3707 151.536 34.8591 151.257 35.2777 150.838C36.0452 149.931 35.8358 148.536 34.9289 147.838C34.0219 147.071 32.6265 147.28 31.9288 148.187C31.1614 149.094 31.3707 150.489 32.2777 151.187C32.6963 151.536 33.2544 151.675 33.8126 151.606Z" fill="#3F892C"/>
<path d="M48.3244 161.304C48.8127 161.583 49.4406 161.583 49.929 161.374C50.4872 161.164 50.9058 160.815 51.1848 160.257C51.4639 159.769 51.4639 159.141 51.2546 158.653C51.0453 158.164 50.6965 157.676 50.1383 157.397C49.8592 157.257 49.5104 157.188 49.2313 157.188C48.4639 157.188 47.6964 157.606 47.2778 158.374C46.9988 158.862 46.9988 159.49 47.2081 159.978C47.4174 160.467 47.836 161.025 48.3244 161.304Z" fill="#3F892C"/>
<path d="M66.2547 167.583C66.8129 167.722 67.371 167.583 67.8594 167.304C68.3478 167.025 68.6966 166.536 68.8361 165.978C68.9757 165.42 68.8361 164.862 68.5571 164.373C68.278 163.885 67.7896 163.536 67.2315 163.397C66.6733 163.257 66.1152 163.397 65.6268 163.676C65.1384 163.955 64.7896 164.443 64.6501 165.001C64.4407 166.118 65.1384 167.304 66.2547 167.583Z" fill="#3F892C"/>
<path d="M87.3247 167.513C87.3247 166.327 86.3479 165.35 85.1619 165.35C83.9758 165.35 82.9991 166.327 82.9991 167.513C82.9991 168.699 83.9758 169.676 85.1619 169.676C86.3479 169.676 87.3247 168.699 87.3247 167.513Z" fill="#3F892C"/>
<path d="M104.697 163.676C104.209 163.397 103.65 163.257 103.092 163.397C101.906 163.676 101.209 164.792 101.488 165.978C101.627 166.536 101.976 167.025 102.464 167.304C102.953 167.583 103.511 167.722 104.069 167.583C104.627 167.443 105.116 167.094 105.395 166.606C105.674 166.118 105.813 165.559 105.674 165.001C105.534 164.443 105.185 163.955 104.697 163.676Z" fill="#3F892C"/>
<path d="M121.023 157.188C120.744 157.188 120.395 157.257 120.116 157.397C119.627 157.676 119.209 158.094 118.999 158.653C118.79 159.211 118.86 159.769 119.069 160.257C119.348 160.746 119.767 161.164 120.325 161.374C120.883 161.583 121.441 161.513 121.93 161.304C122.976 160.815 123.464 159.49 122.906 158.443C122.627 157.676 121.86 157.188 121.023 157.188Z" fill="#3F892C"/>
<path d="M135.046 150.838C135.395 151.257 135.883 151.536 136.511 151.606C137.069 151.675 137.627 151.536 138.116 151.117C139.023 150.35 139.162 149.024 138.465 148.117C138.046 147.559 137.418 147.28 136.79 147.28C136.302 147.28 135.883 147.42 135.464 147.768C135.046 148.117 134.767 148.606 134.697 149.234C134.627 149.861 134.697 150.42 135.046 150.838Z" fill="#3F892C"/>
<path d="M150.046 138.559C150.604 138.489 151.093 138.21 151.511 137.791C151.86 137.373 152 136.815 152 136.187C151.93 135.629 151.651 135.14 151.232 134.722C150.814 134.373 150.255 134.233 149.627 134.233C149.069 134.303 148.581 134.582 148.162 135.001C147.395 135.908 147.604 137.303 148.511 138.001C148.93 138.419 149.488 138.629 150.046 138.559Z" fill="#3F892C"/>
<path d="M159.674 118.605C159.465 118.605 159.186 118.675 158.976 118.745C158.418 118.954 158 119.303 157.721 119.861C157.232 120.908 157.651 122.233 158.697 122.722C159.186 123.001 159.814 123.001 160.302 122.792C160.86 122.582 161.279 122.233 161.558 121.675C162.046 120.629 161.628 119.303 160.581 118.815C160.302 118.675 160.023 118.605 159.674 118.605Z" fill="#3F892C"/>
<path d="M166.93 105.07C167.418 104.791 167.767 104.303 167.907 103.745C168.046 103.187 167.907 102.628 167.628 102.14C167.349 101.652 166.86 101.303 166.302 101.163C166.162 101.094 165.953 101.094 165.814 101.094C165.395 101.094 165.046 101.233 164.697 101.442C164.209 101.721 163.86 102.21 163.721 102.768C163.442 103.954 164.209 105.07 165.325 105.349C165.883 105.489 166.442 105.349 166.93 105.07Z" fill="#3F892C"/>
<path d="M167.837 82.6749C166.651 82.6749 165.674 83.6517 165.674 84.8377C165.674 86.0238 166.651 87.0005 167.837 87.0005C169.023 87.0005 170 86.0238 170 84.8377C170 83.6517 169.023 82.6749 167.837 82.6749Z" fill="#3F892C"/>
<path d="M166.93 64.6051C166.581 64.3958 166.162 64.2562 165.814 64.2562C165.674 64.2562 165.465 64.2562 165.325 64.326C164.139 64.6051 163.441 65.7214 163.721 66.9074C163.86 67.4656 164.209 67.9539 164.697 68.233C165.186 68.5121 165.744 68.6516 166.302 68.5121C166.86 68.3725 167.348 68.0237 167.628 67.5353C167.907 67.0469 168.046 66.4888 167.907 65.9307C167.767 65.3725 167.418 64.9539 166.93 64.6051Z" fill="#3F892C"/>
<path d="M160.372 46.9537C160.162 46.884 159.883 46.8142 159.674 46.8142C159.325 46.8142 159.046 46.884 158.767 47.0235C157.721 47.5119 157.232 48.8375 157.79 49.884C158.069 50.3724 158.488 50.791 159.046 51.0003C159.604 51.2096 160.162 51.1398 160.651 50.9305C161.697 50.4422 162.186 49.1166 161.628 48.07C161.348 47.5119 160.93 47.0933 160.372 46.9537Z" fill="#3F892C"/>
<path d="M151.162 34.9537C151.581 34.6049 151.86 34.1165 151.93 33.4886C152 32.9304 151.86 32.3723 151.441 31.8839C151.093 31.4653 150.604 31.1862 149.976 31.1165C149.907 31.1165 149.837 31.1165 149.697 31.1165C149.209 31.1165 148.72 31.256 148.372 31.6048C147.465 32.3723 147.325 33.6979 148.023 34.6049C148.86 35.5118 150.255 35.7211 151.162 34.9537Z" fill="#3F892C"/>
<path d="M136.999 22.3259C137.558 22.2561 138.046 21.9771 138.465 21.5585C139.232 20.6515 139.023 19.2561 138.116 18.5584C137.767 18.2794 137.279 18.0701 136.79 18.0701C136.72 18.0701 136.651 18.0701 136.511 18.0701C135.953 18.1398 135.465 18.4189 135.046 18.8375C134.697 19.2561 134.558 19.8143 134.558 20.4422C134.627 21.0003 134.906 21.4887 135.325 21.9073C135.744 22.3259 136.372 22.3957 136.999 22.3259Z" fill="#3F892C"/>
<path d="M121.022 8.16296C120.813 8.16296 120.534 8.23273 120.325 8.3025C119.767 8.5118 119.348 8.86064 119.069 9.41879C118.79 9.90716 118.79 10.5351 118.999 11.0234C119.209 11.5118 119.557 12.0002 120.116 12.2793C121.162 12.7676 122.488 12.349 122.976 11.3025C123.464 10.256 123.046 8.93041 121.999 8.44204C121.72 8.23273 121.371 8.16296 121.022 8.16296Z" fill="#3F892C"/>
<path d="M103.092 6.27934C103.65 6.41888 104.208 6.27934 104.697 6.00027C105.185 5.7212 105.534 5.23282 105.674 4.67468C105.953 3.48862 105.185 2.37233 104.069 2.09326C103.86 2.09326 103.72 2.09326 103.58 2.09326C103.162 2.09326 102.813 2.2328 102.464 2.4421C101.976 2.72117 101.627 3.20955 101.487 3.76769C101.208 4.88398 101.976 6.07004 103.092 6.27934Z" fill="#3F892C"/>
</svg>
