<svg width="136" height="39" viewBox="0 0 136 39" fill="none" xmlns="http://www.w3.org/2000/svg">
<path fill-rule="evenodd" clip-rule="evenodd" d="M47.4822 21.3395H47.1153V26.3406H54.9728V38.5138H60.2117V26.3406H68.0704V21.3395H47.4822ZM87.8749 21.3395H87.7106L87.6014 21.4643L81.705 28.2442L75.8315 21.4647L75.722 21.3398H69.0653L69.6254 21.9702L79.0973 32.6358V38.5141H84.3374V32.6352L93.7864 21.9696L94.345 21.3395H87.8749ZM100.407 33.4416V21.3395H95.1662V38.5138H114.411V33.4416H100.407ZM135.633 21.3395H116.224V38.5138H136V33.7739H121.348V31.7972H136V28.0564H121.348V26.0559H136V21.3395H135.633ZM40.0129 20.9026H29.0049C27.5339 20.9026 26.1231 21.502 25.083 22.5689C24.0428 23.6359 23.4585 25.0829 23.4585 26.5918C23.4585 28.1006 24.0428 29.5477 25.083 30.6146C26.1231 31.6816 27.5339 32.281 29.0049 32.281H40.0129C40.2173 32.2814 40.4132 32.3649 40.5576 32.5133C40.7021 32.6617 40.7832 32.8627 40.7833 33.0724V33.3086C40.7832 33.5183 40.7021 33.7194 40.5576 33.8677C40.4132 34.0161 40.2173 34.0996 40.0129 34.1001H29.0049C28.8005 34.0997 28.6045 34.0162 28.46 33.8678C28.3155 33.7195 28.2343 33.5183 28.2343 33.3086V33.0724H23.4639V33.3086C23.4643 34.8166 24.048 36.2628 25.0868 37.3298C26.1257 38.3968 27.5348 38.9975 29.0049 39H40.0129C41.4826 38.9974 42.8914 38.397 43.9301 37.3305C44.9688 36.2639 45.5526 34.8184 45.5536 33.3108V33.0746C45.5526 31.567 44.9688 30.1214 43.9301 29.0549C42.8914 27.9884 41.4826 27.388 40.0129 27.3854H29.0049C28.8003 27.3854 28.604 27.302 28.4593 27.1536C28.3146 27.0052 28.2333 26.8039 28.2333 26.594C28.2333 26.3841 28.3146 26.1828 28.4593 26.0343C28.604 25.8859 28.8003 25.8025 29.0049 25.8025H40.0129C40.2173 25.8029 40.4132 25.8865 40.5576 26.0349C40.7021 26.1832 40.7832 26.3843 40.7833 26.594V26.8202H45.5536V26.594C45.5528 25.0863 44.969 23.6406 43.9303 22.5739C42.8916 21.5072 41.4828 20.9067 40.0129 20.9042V20.9026ZM6.00678 6.04457C6.68525 5.38921 7.68014 5.05747 8.95798 5.05747H15.2845C15.9821 5.04653 16.6784 5.1242 17.3574 5.28872C17.9081 5.43365 18.4118 5.72493 18.8178 6.1332L19.0971 6.41064L19.3432 6.10168L21.8648 2.9344L22.0735 2.67226L21.8359 2.43757C21.0432 1.6447 20.0709 1.06617 19.0064 0.753912C17.7914 0.430181 16.539 0.277735 15.2839 0.300776H8.9592C7.68874 0.282401 6.42411 0.48056 5.21694 0.88717C4.16849 1.24345 3.20456 1.82139 2.38743 2.58362C1.60724 3.33243 0.999974 4.25056 0.610014 5.27093C0.1912 6.39096 -0.0155272 7.58264 0.000908391 8.78212V8.80521C-0.0144394 10.0084 0.192763 11.2036 0.611536 12.3276C0.999319 13.3528 1.60688 14.2754 2.38926 15.0271C3.20623 15.7896 4.17021 16.3675 5.21877 16.7236C6.4259 17.1304 7.69055 17.3285 8.96103 17.31H15.2876C15.9756 17.3133 16.6631 17.2738 17.3464 17.1917C17.9356 17.1202 18.5176 16.9957 19.0855 16.8197C19.6015 16.6582 20.0982 16.4377 20.5663 16.1624C21.0276 15.8861 21.455 15.554 21.8393 15.1732L22.0766 14.9394L21.8694 14.677L19.3475 11.4866L19.0977 11.1704L18.8172 11.4585C18.4289 11.8579 17.9469 12.1481 17.4176 12.3011C16.7222 12.4842 16.0056 12.5688 15.2879 12.5526H8.9592C7.69322 12.5526 6.70776 12.2206 6.02929 11.5659C5.34625 10.9064 5.00732 10.002 4.99484 8.80022V8.78149C4.99363 7.59778 5.32526 6.70212 6.00678 6.04457ZM37.3255 0.609421L37.2202 0.439027H32.4594L32.3541 0.609421L22.47 16.6075L22.1219 17.1711H27.7024L27.8065 16.9929L29.391 14.2816H40.3099L41.8722 16.991L41.9759 17.1711H47.558L47.2096 16.6075L37.3255 0.609421ZM37.6559 9.89468H32.024L34.8398 5.35082L37.6559 9.89468ZM120.258 16.6075L110.373 0.609421L110.268 0.439027H105.507L105.402 0.609421L95.5179 16.6075L95.1695 17.1711H100.75L100.854 16.9929L102.439 14.2816H113.358L114.92 16.991L115.024 17.1711H120.605L120.258 16.6075ZM110.704 9.89468H105.072L107.888 5.35082L110.704 9.89468ZM95.2915 0.390653H90.4141V12.4156C90.4141 12.4885 90.3932 12.5597 90.3541 12.6205C90.315 12.6813 90.2594 12.729 90.1942 12.7578C90.129 12.7866 90.0569 12.7952 89.987 12.7824C89.9171 12.7697 89.8524 12.7363 89.8008 12.6862L78.2816 1.47481C77.538 0.751381 76.6038 0.267553 75.5948 0.0832416C74.5858 -0.10107 73.5462 0.0222265 72.6049 0.437867C71.6635 0.853508 70.8616 1.54324 70.2986 2.42165C69.7355 3.30006 69.436 4.32858 69.4371 5.37984V12.0989C69.4372 12.1718 69.4165 12.2432 69.3774 12.3042C69.3383 12.3652 69.2826 12.413 69.2173 12.4418C69.1519 12.4706 69.0798 12.4791 69.0098 12.4663C68.9398 12.4534 68.875 12.4197 68.8234 12.3695L57.6311 1.47481C56.8874 0.751423 55.9532 0.267634 54.9442 0.083344C53.9352 -0.100946 52.8956 0.0223579 51.9542 0.437986C51.0128 0.853615 50.211 1.54332 49.6479 2.4217C49.0848 3.30008 48.7852 4.32858 48.7862 5.37984V17.231H53.663V5.37984C53.663 5.30695 53.6838 5.23563 53.7228 5.17473C53.7619 5.11383 53.8175 5.06602 53.8828 5.03722C53.9481 5.00842 54.0202 4.9999 54.0901 5.0127C54.1601 5.02551 54.2249 5.05909 54.2764 5.10927L65.4688 16.0027C66.2123 16.7261 67.1464 17.21 68.1554 17.3944C69.1643 17.5788 70.2038 17.4557 71.1452 17.0402C72.0866 16.6247 72.8886 15.9351 73.4517 15.0568C74.0149 14.1785 74.3145 13.1501 74.3136 12.0989V5.37984C74.3136 5.30695 74.3343 5.23563 74.3734 5.17473C74.4125 5.11383 74.4681 5.06602 74.5334 5.03722C74.5986 5.00842 74.6707 4.9999 74.7407 5.0127C74.8107 5.02551 74.8754 5.05909 74.927 5.10927L86.4461 16.321C87.4073 17.2716 88.6893 17.8044 90.0244 17.8083C90.7457 17.8065 91.4591 17.6535 92.1207 17.3586C93.0679 16.9507 93.8753 16.2627 94.4399 15.3824C95.0046 14.5021 95.3011 13.4694 95.2915 12.4156V0.390653Z" fill="#4A4A4A"/>
</svg>
