<svg width="88" height="85" viewBox="0 0 88 85" fill="none" xmlns="http://www.w3.org/2000/svg">
<path fill-rule="evenodd" clip-rule="evenodd" d="M60.2571 28.543C58.8814 27.3833 56.9028 27.4098 55.7675 27.7467C56.5113 26.8687 58.2432 26.1488 58.7538 26.0614C59.1425 26.2015 60.2571 27.303 60.2571 28.543ZM64.6497 23.7408C63.745 19.0875 52.4972 22.1707 46.8329 20.1942C46.7243 21.5507 48.5766 23.7243 50.3485 24.5288C47.3198 27.056 44.6006 32.1478 44.052 38.3687C43.505 32.1478 40.7858 27.056 37.7571 24.5288C39.5289 23.7243 41.3828 21.5507 41.2728 20.1942C35.6084 22.1707 24.3605 19.0875 23.4542 23.7408C23.2635 24.7256 23.7563 26.2265 24.2888 26.658C24.3839 26.3458 24.8813 25.3249 26.4491 25.096C34.3736 23.9448 40.9896 35.6876 35.0176 40.4354C34.9266 40.5075 34.9776 40.6409 35.101 40.6409H53.0058C53.1276 40.6409 53.179 40.5075 53.0896 40.4354C47.1158 35.6876 53.7319 23.9448 61.6562 25.096C63.2256 25.3249 63.7212 26.3458 63.8167 26.6578C64.3491 26.2265 64.8419 24.7258 64.6497 23.7408ZM66.5771 13.0606C66.4348 12.621 71.0812 12.61 71.0812 15.4061C71.0812 17.2801 68.3019 18.1677 68.3019 20.1124C68.3019 21.0182 69.3154 21.6826 69.6263 21.6826C68.9105 18.5603 71.8705 20.1942 72.6697 20.7781C71.0813 16.5794 74.6572 16.6059 74.3051 14.6807C74.0601 13.3352 70.9523 13.7417 69.8273 13.0606C67.8313 11.8525 65.47 7.15176 63.9137 11.8525C66.8148 14.4423 65.1268 18.2537 61.444 18.2537C61.444 18.2537 61.4233 18.8126 61.4571 18.857C65.8498 18.6503 67.3808 15.5463 66.5771 13.0606ZM15.3289 20.7781C16.1284 20.1942 19.0879 18.5603 18.3739 21.6826C18.6832 21.6826 19.6966 21.0182 19.6966 20.1124C19.6966 18.1677 16.9173 17.2801 16.9173 15.4061C16.9173 12.6098 21.5637 12.621 21.4214 13.0606C20.6191 15.5462 22.1506 18.6504 26.543 18.857C26.5753 18.8126 26.5547 18.2537 26.5547 18.2537C22.8734 18.2537 21.1852 14.442 24.0849 11.8525C22.5287 7.15176 20.1674 11.8525 18.1714 13.0606C17.0466 13.7418 13.9385 13.3352 13.6936 14.6807C13.3429 16.6059 16.9173 16.5795 15.3289 20.7781ZM27.8014 28.5429C29.1785 27.3832 31.1571 27.4097 32.291 27.7466C31.5502 26.8686 29.8153 26.1486 29.3063 26.0613C28.9175 26.2014 27.8014 27.3029 27.8014 28.5429ZM46.142 2.51195L43.9992 0L41.8565 2.51195L43.9993 5.15564L46.142 2.51195ZM58.374 10.1076L56.8501 8.32231L55.3278 10.1076L56.8501 11.8524L58.374 10.1076ZM70.7337 61.7085L68.802 59.743L66.8704 61.7085L68.802 63.4325L70.7337 61.7085ZM32.6722 10.1073L31.1481 8.32204L29.6258 10.1073L31.1481 11.8523L32.6722 10.1073ZM28.3073 18.8568H33.9907C38.7689 18.8568 40.9192 16.0369 41.5689 13.5915H46.4309C47.0807 16.0371 49.2292 18.8569 54.0093 18.8569H59.6926C59.6926 18.8569 60.6868 17.56 60.936 16.9179C61.8338 14.607 60.6868 13.5292 59.0133 13.5292L56.85 15.4143L54.6866 13.5292C53.0132 13.5292 51.8663 14.607 52.764 16.9179C52.8784 17.2135 53.1527 17.6474 53.4121 18.0288C51.3954 17.7624 48.8215 16.4352 48.2567 13.5915C48.2567 13.5915 49.7468 11.3155 50.1209 10.3945C51.4645 7.08244 49.7485 5.72846 47.239 5.72846L43.9991 9.39041L40.7594 5.72846C38.2499 5.72846 36.5339 7.08231 37.8789 10.3945C38.2516 11.3156 39.7431 13.5917 39.7431 13.5917C39.177 16.4353 36.603 17.7626 34.5863 18.029C34.8474 17.6475 35.1202 17.2135 35.2346 16.918C36.1306 14.6072 34.9867 13.5294 33.3116 13.5294L31.1484 15.4144L28.9852 13.5294C27.3104 13.5294 26.1663 14.6072 27.0625 16.918C27.3118 17.5602 28.3073 18.8568 28.3073 18.8568ZM87.0663 35.7955C85.969 36.3296 79.5334 39.2284 71.2893 38.1562C71.3747 37.7781 71.4471 37.3974 71.5064 37.0147C76.9932 36.3835 81.4533 35.4889 84.2957 33.9688C87.5356 32.2349 88.9524 28.0961 87.317 25.0168C87.2747 24.9391 87.1574 24.9253 87.0987 24.9903C86.2027 25.9822 80.5675 31.8757 71.6899 33.7079C71.6672 33.2658 71.6251 32.8248 71.5638 32.3861C75.8756 30.035 80.0851 27.3259 82.09 24.8488C85.1203 21.1036 84.8414 16.3268 81.9581 13.8911C81.9282 13.8664 81.8886 13.8553 81.8496 13.8606C81.8105 13.8659 81.7757 13.8872 81.7541 13.9189C80.842 15.3655 72.3032 28.6354 62.9282 34.3638C62.8138 34.4342 62.6984 34.5031 62.5822 34.5706C62.3136 34.7274 62.2844 35.063 62.5132 35.2627C63.5939 36.2045 64.2658 37.5153 64.2658 38.9704C64.2658 41.5002 62.2374 43.6044 59.5563 44.0607C58.1937 44.3145 56.2268 44.2409 54.3378 43.6405C54.2527 43.614 54.1648 43.6681 54.1648 43.75V51.7631C54.1648 51.8919 54.3688 51.9239 54.417 51.8002C55.5653 48.8752 59.0031 48.2536 60.5066 48.2536C61.0478 51.3801 62.0142 53.9698 63.2697 55.3637C65.314 57.6287 68.6523 57.5969 70.1 56.0309C70.1239 56.005 70.1341 55.97 70.1278 55.9359C70.1215 55.9018 70.0993 55.8723 70.0676 55.8559C69.2171 55.386 64.3506 52.5134 63.3766 47.8057C63.7611 47.6781 64.1364 47.5338 64.4959 47.3631C66.0666 49.8627 68.3531 52.0889 70.1937 52.9391C73.2856 54.3652 76.1161 53.6715 77.3716 51.5841C77.4171 51.5105 77.3614 51.4189 77.2689 51.4107C75.3564 51.2636 69.4868 49.6463 66.9876 45.7057C67.2737 45.4531 67.5538 45.1896 67.8149 44.9094C70.4298 46.8235 74.1275 48.5157 76.7749 48.8611C79.8723 49.2661 83.3821 48.316 83.4673 44.8526C83.4686 44.7831 83.4041 44.7263 83.328 44.7306C82.2264 44.7943 74.9356 45.0995 69.7406 42.2323C69.9211 41.9025 70.0893 41.5666 70.2451 41.2253C70.2451 41.2253 78.0949 43.0093 81.8142 42.4182C85.5103 41.8316 87.6751 39.1823 87.257 35.8868C87.2453 35.8046 87.1455 35.7567 87.0663 35.7955ZM17.7531 41.2257C17.9094 41.567 18.0781 41.9029 18.259 42.2327C13.0657 45.0984 5.77782 44.796 4.67202 44.731C4.59428 44.7267 4.52977 44.7863 4.53115 44.8543C4.61799 48.3164 8.12616 49.2664 11.2235 48.8615C13.8696 48.5161 17.5686 46.8239 20.1835 44.9098C20.4461 45.19 20.7248 45.4535 21.0106 45.706C18.5101 49.6463 12.642 51.2637 10.7294 51.4108C10.637 51.4191 10.5827 51.5106 10.6268 51.5842C11.8823 53.6716 14.713 54.3652 17.8062 52.9392C19.6455 52.089 21.9319 49.8628 23.5028 47.3635C23.8634 47.5339 24.2389 47.6782 24.6217 47.8059C23.6478 52.5135 18.7815 55.3861 17.9307 55.8561C17.8993 55.8728 17.8774 55.9022 17.8711 55.9361C17.8649 55.9701 17.8749 56.005 17.8984 56.031C19.3461 57.5971 22.6858 57.6289 24.7301 55.3638C25.9858 53.9698 26.9507 51.3802 27.4919 48.2538C28.9967 48.2538 32.433 48.8754 33.5814 51.8005C33.6313 51.924 33.835 51.8919 33.835 51.7631V43.75C33.835 43.6682 33.7457 43.6142 33.6607 43.6405C31.7716 44.2409 29.8048 44.3146 28.4438 44.0607C25.7613 43.6045 23.7329 41.5004 23.7329 38.9704C23.7329 37.5151 24.406 36.203 25.4855 35.2612C25.7157 35.0628 25.6849 34.7271 25.4179 34.5705C25.3007 34.5029 25.1843 34.434 25.0689 34.3637C15.6998 28.6382 7.16524 15.378 6.24567 13.9214C6.20294 13.8534 6.10038 13.8396 6.03725 13.8923C3.1582 16.3293 2.8781 21.1048 5.90822 24.8486C7.91319 27.3257 12.1223 30.0347 16.433 32.3859C16.3722 32.8245 16.3306 33.2655 16.3084 33.7075C7.43803 31.8767 1.80746 25.9926 0.902501 24.9941C0.8424 24.9261 0.721923 24.94 0.680983 25.0177C-0.951107 28.0983 0.465531 32.2345 3.70256 33.9684C6.54493 35.4885 11.0051 36.3832 16.4919 37.0143C16.5511 37.397 16.6235 37.7777 16.7088 38.1558C8.47353 39.2267 2.04069 36.3348 0.934895 35.7964C0.852739 35.7563 0.752939 35.8062 0.742738 35.8895C0.326445 39.1851 2.48952 41.8316 6.18557 42.4182C9.90354 43.0093 17.7531 41.2257 17.7531 41.2257ZM68.8019 65.9638L65.9419 63.8C64.8008 64.4534 63.9619 65.4912 63.6363 66.7074C61.916 66.9391 57.2253 65.9377 57.6813 65.2734C62.8221 58.3214 58.89 54.1824 54.1645 54.4126V59.0816C54.1645 60.581 52.8034 61.7959 51.1269 61.7959H47.8638C45.5229 61.7959 43.9991 64.0583 43.9991 64.0583C43.9991 64.0583 42.4755 61.7959 40.1346 61.7959H36.8712C35.1936 61.7959 33.8354 60.581 33.8354 59.0816V54.4128C29.1098 54.1827 25.1746 58.3216 30.3169 65.2735C30.7687 65.9309 25.9476 66.9838 23.6862 66.7174C23.0907 66.1236 22.2311 65.7492 21.2689 65.7492C20.8599 65.7493 20.4541 65.8193 20.0706 65.956C20.0706 65.956 11.1843 57.8666 11.0215 57.7875L11.0948 57.6238C11.6007 56.714 10.8264 55.7222 10.3366 55.7917C10.9055 55.1356 10.9321 52.2629 7.77575 51.5985C7.86811 52.1756 7.91498 53.3533 7.91498 53.3533C7.91498 53.3533 5.47897 52.0868 4.25573 53.1797C3.18081 54.4032 4.67244 56.6224 4.67244 56.6224C4.67244 56.6224 3.42576 56.6516 2.81125 56.6016C3.71482 59.5394 6.74494 59.3313 7.40054 58.7516C7.35781 59.219 8.45368 59.8848 9.38193 59.3506L9.78968 59.1607C9.86163 59.2535 18.5164 67.1155 18.5164 67.1155C18.1189 67.6828 17.9297 68.3791 18.0601 69.1212C18.2655 70.2809 19.2704 71.242 20.5538 71.4916C21.46 71.6665 22.3121 71.4971 22.9956 71.1129L25.2865 73.1575C25.4906 73.3351 25.7662 73.4459 26.0741 73.4253C26.6344 73.3891 27.0539 72.9521 27.0114 72.4515C26.9938 72.2254 26.8736 72.0314 26.7077 71.8843C26.6711 71.8453 24.3743 69.7952 24.3743 69.7952C26.269 68.5176 29.7993 67.6177 32.7296 67.6177C33.2445 67.6177 33.4864 67.1989 33.309 66.788C31.9816 63.7185 34.8358 61.4952 37.7882 63.3052C39.0761 64.0945 40.3843 65.6494 41.3699 68.2431C36.5255 69.371 30.4433 72.4776 29.2128 75.8692C28.739 77.1787 30.304 78.9637 32.2047 79.3231C32.2384 79.3302 32.2736 79.3241 32.3025 79.3061C32.3315 79.2881 32.3517 79.2597 32.3587 79.2273C33.3517 74.1644 39.0144 70.3915 41.961 69.7507C42.1092 70.1322 42.0607 70.0088 42.2089 70.3887C38.9998 71.848 35.8876 74.9258 34.9987 78.5847C34.591 80.2604 36.5343 81.7709 38.1388 82.1844C38.2195 82.2051 38.2987 82.151 38.3032 82.0761C38.6082 77.4489 40.7334 73.5194 42.637 71.7315C42.6892 72.0809 42.7283 72.4321 42.7545 72.7842C42.7545 72.7842 40.8053 78.0065 40.8053 81.8168C40.8053 83.5893 43.545 84.8266 43.9499 85C44.4557 84.8266 47.194 83.5893 47.194 81.8168C47.194 78.0064 45.2449 72.7842 45.2449 72.7842C45.2715 72.432 45.3111 72.0809 45.3637 71.7315C47.266 73.5194 49.3926 77.4475 49.6962 82.0745C49.7006 82.1496 49.7813 82.2051 49.8603 82.1843C51.4664 81.771 53.4084 80.2605 53.002 78.585C52.1115 74.926 49.0009 71.8482 45.7917 70.389C45.9384 70.0089 45.89 70.1323 46.0382 69.7508C48.9863 70.3917 54.6476 74.1643 55.6405 79.2271C55.6477 79.2595 55.668 79.2878 55.6969 79.3058C55.7258 79.3238 55.761 79.33 55.7946 79.323C57.6939 78.9638 59.2617 77.1785 58.7851 75.8694C57.5576 72.4778 51.4737 69.3711 46.6294 68.2433C47.6164 65.6495 48.9246 64.0946 50.2123 63.3054C53.1633 61.4953 56.0174 63.7189 54.6901 66.7884C54.5125 67.1989 54.7531 67.6177 55.2695 67.6177C58.5839 67.6177 62.6671 68.769 64.2832 70.3128C65.3159 71.8025 67.224 72.7554 69.3771 72.5513C71.8235 72.3212 73.8182 70.554 74.0939 68.3696C74.3344 66.4554 73.3049 64.7368 71.6637 63.8005L68.8019 65.9638ZM47.7214 52.0197C48.7408 51.6566 50.338 51.9505 50.2837 53.3652C50.2706 53.6855 50.7386 53.6855 50.7722 53.3582C51.0773 51.2403 49.5886 50.6298 48.031 50.8782C47.8375 50.1499 47.6791 49.5133 47.4987 48.8822C47.3551 48.3719 47.3021 47.4133 47.9168 47.4133C48.2483 47.4133 48.1149 48.3053 48.0841 48.6893C48.0561 49.0264 48.1823 49.2304 48.4669 49.24C48.6445 49.2469 48.866 49.0293 48.9979 48.8848C49.8898 47.9153 50.0965 46.4146 49.0522 45.6907C48.1783 45.0831 45.9898 45.5353 45.3883 46.4007C45.2976 46.0747 44.8634 45.5366 44.6549 45.302C44.4527 45.0734 44.3999 44.9166 44.68 44.7155C44.8121 44.6184 45.211 44.2371 45.211 43.8431C45.211 43.6101 45.0233 43.18 44.4264 43.18C43.9555 43.18 43.432 43.4936 43.432 44.1926C43.432 44.348 43.4715 44.5146 43.5756 44.6935C43.2779 44.6462 42.4698 44.6657 42.0548 44.7642L47.7938 59.9066C49.4365 59.1271 50.6406 57.8926 50.6406 56.5681C50.6406 55.4389 48.9112 55.8134 48.0709 56.6942C47.801 55.2628 47.5604 53.9409 47.298 52.6231C47.2263 52.2597 47.4179 52.1293 47.7214 52.0197ZM39.6065 41.7336L40.8121 44.9542C39.7796 45.1901 38.1194 45.9141 38.1194 46.8724C38.1194 48.1487 40.4675 48.9795 41.8257 48.8795C41.7581 49.1708 41.836 49.4302 42.0472 49.6673C41.5544 49.6673 40.6246 49.8879 40.3194 50.2041C39.5993 49.5592 38.4728 49.3247 37.9375 49.7173C37.3993 50.1126 37.3833 50.7826 37.9449 51.5399C38.3364 52.0642 38.4832 52.5817 38.0432 53.1891C39.68 53.1891 39.077 51.1432 39.718 51.1432C39.6345 51.5399 39.6857 51.999 39.8721 52.5081C39.9953 52.8465 39.9953 53.0865 39.7842 53.4124C39.2562 54.2239 38.4349 56.088 38.5463 57.7733C38.0095 57.7704 37.7367 57.6441 37.926 56.9397C37.9963 56.6773 37.8277 56.4901 37.6048 56.8134C37.3584 57.1699 37.2395 57.7788 37.2395 58.0393C37.2395 59.5403 39.0991 59.8426 39.809 59.5251C41.8625 61.4356 45.8958 60.926 47.2466 60.2852L40.145 41.5502C39.9998 41.1966 39.479 41.366 39.6065 41.7336ZM39.36 57.1658C39.2133 56.3944 40.3295 55.0158 41.7493 53.6857C41.4471 54.5525 41.6349 56.0464 42.2273 56.561C41.1976 56.561 39.9744 56.7468 39.36 57.1658Z" fill="#DBDBDB"/>
</svg>
