<svg width="123" height="22" viewBox="0 0 123 22" fill="none" xmlns="http://www.w3.org/2000/svg">
<path fill-rule="evenodd" clip-rule="evenodd" d="M17.445 2.309C16.1607 3.31605 15.1224 4.60223 14.4089 6.07008C13.6955 7.53793 13.3255 9.14893 13.327 10.781C13.3253 12.4132 13.6952 14.0244 14.4087 15.4925C15.1222 16.9605 16.1605 18.2469 17.445 19.254C18.7293 18.2469 19.7675 16.9607 20.481 15.4929C21.1944 14.025 21.5645 12.4141 21.563 10.782C21.5648 9.14961 21.1949 7.53824 20.4814 6.07003C19.7679 4.60182 18.7295 3.3153 17.445 2.308V2.309ZM24.108 0C21.901 0 19.848 0.664 18.14 1.802C18.227 1.873 18.316 1.944 18.4 2.018C19.6544 3.10784 20.6604 4.45418 21.3499 5.96609C22.0395 7.478 22.3965 9.12027 22.397 10.782C22.397 14.141 20.94 17.335 18.4 19.545C18.316 19.618 18.227 19.689 18.14 19.761C19.9072 20.9389 21.9842 21.566 24.108 21.563C30.062 21.563 34.89 16.736 34.89 10.782C34.89 4.827 30.062 0 24.108 0ZM16.49 19.545C16.574 19.618 16.663 19.689 16.75 19.761C14.9828 20.9391 12.9058 21.5662 10.782 21.563C4.827 21.563 0 16.736 0 10.782C0 4.827 4.827 0 10.782 0C12.989 0 15.042 0.664 16.75 1.802C16.663 1.873 16.574 1.944 16.49 2.017C15.2355 3.10699 14.2295 4.4535 13.54 5.96558C12.8504 7.47767 12.4934 9.12012 12.493 10.782C12.493 14.142 13.949 17.336 16.49 19.545ZM56.422 10.828C56.422 9.568 57.247 8.533 58.598 8.533C59.888 8.533 60.758 9.523 60.758 10.828C60.758 12.133 59.888 13.123 58.598 13.123C57.248 13.123 56.422 12.088 56.422 10.828ZM62.228 10.828V7.243H60.668V8.113C60.173 7.468 59.423 7.063 58.403 7.063C56.393 7.063 54.817 8.638 54.817 10.828C54.817 13.018 56.392 14.593 58.403 14.593C59.423 14.593 60.173 14.188 60.668 13.543V14.413H62.228V10.828V10.828ZM114.908 10.828C114.908 9.568 115.734 8.533 117.084 8.533C118.374 8.533 119.244 9.523 119.244 10.828C119.244 12.133 118.374 13.123 117.084 13.123C115.734 13.123 114.909 12.088 114.909 10.828H114.908ZM122.458 14.073V14.186H122.563C122.583 14.187 122.603 14.1821 122.62 14.172C122.634 14.162 122.64 14.148 122.64 14.128C122.64 14.12 122.639 14.1121 122.635 14.1049C122.632 14.0977 122.627 14.0916 122.62 14.087C122.603 14.0767 122.583 14.0719 122.563 14.073H122.459H122.458ZM122.564 13.993C122.618 13.993 122.66 14.006 122.689 14.03C122.703 14.0418 122.715 14.0568 122.723 14.0738C122.73 14.0908 122.734 14.1094 122.733 14.128C122.734 14.1441 122.731 14.1602 122.725 14.1752C122.719 14.1902 122.71 14.2038 122.698 14.215C122.67 14.2395 122.635 14.2543 122.598 14.257L122.737 14.417H122.629L122.5 14.257H122.459V14.417H122.369V13.994H122.564V13.993ZM122.537 14.561C122.583 14.5614 122.629 14.5525 122.672 14.5348C122.715 14.5171 122.754 14.491 122.786 14.458C122.819 14.4252 122.845 14.3861 122.863 14.343C122.881 14.2999 122.89 14.2536 122.889 14.207C122.89 14.1483 122.876 14.0903 122.848 14.0384C122.821 13.9865 122.781 13.9423 122.732 13.9098C122.683 13.8773 122.627 13.8575 122.568 13.8523C122.51 13.8471 122.451 13.8566 122.397 13.88C122.312 13.9159 122.245 13.9833 122.209 14.068C122.19 14.1118 122.181 14.1589 122.181 14.2065C122.181 14.2541 122.19 14.3012 122.209 14.345C122.236 14.4095 122.282 14.4645 122.34 14.503C122.398 14.5415 122.467 14.5617 122.537 14.561V14.561ZM122.537 13.751C122.659 13.7502 122.776 13.7978 122.863 13.8833C122.95 13.9687 122.999 14.0852 123 14.207C123 14.2668 122.989 14.3261 122.965 14.3811C122.942 14.4362 122.907 14.4858 122.864 14.527C122.776 14.6122 122.659 14.6605 122.537 14.662C122.415 14.6631 122.297 14.6158 122.21 14.5306C122.123 14.4453 122.073 14.329 122.071 14.207C122.072 14.1465 122.084 14.0866 122.108 14.0309C122.131 13.9753 122.166 13.9248 122.209 13.8825C122.253 13.8402 122.304 13.8069 122.36 13.7845C122.416 13.7621 122.476 13.7511 122.537 13.752V13.751ZM120.714 10.828V4.363H119.154V8.113C118.659 7.468 117.909 7.063 116.889 7.063C114.879 7.063 113.304 8.638 113.304 10.828C113.304 13.018 114.879 14.593 116.889 14.593C117.909 14.593 118.659 14.188 119.154 13.543V14.413H120.714V10.828V10.828ZM81.578 8.458C82.583 8.458 83.228 9.088 83.393 10.198H79.673C79.838 9.163 80.468 8.458 81.578 8.458ZM81.608 7.063C79.508 7.063 78.038 8.593 78.038 10.828C78.038 13.108 79.568 14.593 81.713 14.593C82.793 14.593 83.783 14.323 84.653 13.588L83.888 12.433C83.288 12.913 82.523 13.183 81.803 13.183C80.798 13.183 79.883 12.718 79.658 11.428H84.983C84.998 11.233 85.013 11.038 85.013 10.828C84.998 8.593 83.618 7.063 81.608 7.063V7.063ZM100.433 10.828C100.433 9.568 101.258 8.533 102.609 8.533C103.899 8.533 104.769 9.523 104.769 10.828C104.769 12.133 103.899 13.123 102.609 13.123C101.259 13.123 100.433 12.088 100.433 10.828ZM106.239 10.828V7.243H104.679V8.113C104.184 7.468 103.434 7.063 102.413 7.063C100.403 7.063 98.828 8.638 98.828 10.828C98.828 13.018 100.403 14.593 102.413 14.593C103.433 14.593 104.183 14.188 104.679 13.543V14.413H106.239V10.828ZM91.629 10.828C91.629 13.003 93.143 14.593 95.454 14.593C96.534 14.593 97.254 14.353 98.034 13.738L97.284 12.478C96.698 12.898 96.084 13.123 95.408 13.123C94.163 13.108 93.248 12.208 93.248 10.828C93.248 9.448 94.163 8.548 95.408 8.533C96.083 8.533 96.698 8.758 97.283 9.178L98.033 7.918C97.253 7.303 96.533 7.063 95.453 7.063C93.143 7.063 91.628 8.653 91.628 10.828H91.629ZM111.729 7.063C110.829 7.063 110.244 7.483 109.839 8.113V7.243H108.294V14.413H109.854V10.393C109.854 9.208 110.364 8.548 111.384 8.548C111.699 8.548 112.029 8.593 112.359 8.728L112.839 7.258C112.483 7.13044 112.107 7.0645 111.729 7.063V7.063ZM69.938 7.813C69.188 7.318 68.153 7.063 67.013 7.063C65.198 7.063 64.028 7.933 64.028 9.358C64.028 10.528 64.898 11.248 66.502 11.473L67.238 11.578C68.093 11.698 68.498 11.923 68.498 12.328C68.498 12.883 67.928 13.198 66.863 13.198C65.783 13.198 65.003 12.853 64.477 12.448L63.743 13.663C64.597 14.293 65.678 14.593 66.848 14.593C68.918 14.593 70.118 13.618 70.118 12.253C70.118 10.993 69.173 10.333 67.613 10.108L66.878 10.003C66.203 9.913 65.663 9.778 65.663 9.298C65.663 8.773 66.173 8.458 67.028 8.458C67.943 8.458 68.828 8.803 69.263 9.073L69.938 7.813ZM90.053 7.063C89.153 7.063 88.568 7.483 88.163 8.113V7.243H86.618V14.413H88.178V10.393C88.178 9.208 88.688 8.548 89.708 8.548C90.023 8.548 90.353 8.593 90.683 8.728L91.163 7.258C90.8068 7.13041 90.4314 7.06446 90.053 7.063V7.063ZM76.748 7.243H74.198V5.068H72.623V7.243H71.168V8.668H72.623V11.938C72.623 13.603 73.268 14.593 75.113 14.593C75.788 14.593 76.568 14.383 77.063 14.038L76.613 12.703C76.148 12.973 75.638 13.108 75.233 13.108C74.453 13.108 74.198 12.628 74.198 11.908V8.668H76.748V7.243V7.243ZM53.438 14.413V9.913C53.438 8.218 52.358 7.078 50.618 7.063C49.702 7.048 48.758 7.333 48.098 8.338C47.602 7.543 46.822 7.063 45.728 7.063C44.962 7.063 44.212 7.288 43.628 8.128V7.243H42.068V14.413H43.642V10.438C43.642 9.193 44.332 8.533 45.397 8.533C46.432 8.533 46.957 9.208 46.957 10.423V14.413H48.532V10.438C48.532 9.193 49.252 8.533 50.287 8.533C51.352 8.533 51.862 9.208 51.862 10.423V14.413H53.437H53.438ZM34.553 17.463V17.043H34.443L34.318 17.332L34.192 17.044H34.083V17.462H34.16V17.147L34.278 17.419H34.358L34.476 17.146V17.462H34.553V17.463ZM33.861 17.463V17.115H34.001V17.045H33.645V17.115H33.785V17.462H33.861V17.463Z" fill="#4A4A4A"/>
</svg>
